<?xml version="1.0" encoding="UTF-8"?>
<svg xmlns="http://www.w3.org/2000/svg" id="Layer_1" data-name="Layer 1" viewBox="0 0 58.66 68.51">
  <defs>
    <style>.cls-1{fill:RGB(47, 46, 46);}</style>
  </defs>
  <path class="cls-1" d="M55.85,31.59h-53A2.81,2.81,0,0,0,0,34.4V65.7a2.81,2.81,0,0,0,2.81,2.81h53a2.81,2.81,0,0,0,2.81-2.81V34.4A2.81,2.81,0,0,0,55.85,31.59Zm-53,2h53a.81.81,0,0,1,.81.81v4.2H2V34.4A.81.81,0,0,1,2.81,33.59ZM56.66,44.85H2V40.6H56.66Zm-.81,21.66h-53A.81.81,0,0,1,2,65.7V46.85H56.66V65.7A.81.81,0,0,1,55.85,66.51Z"></path>
  <path class="cls-1" d="M24.94,52.21H5.41a1,1,0,0,0,0,2H24.94a1,1,0,1,0,0-2Z"></path>
  <path class="cls-1" d="M15.17,57.89H5.41a1,1,0,1,0,0,2h9.76a1,1,0,1,0,0-2Z"></path>
  <path class="cls-1" d="M28.45,14.36h.64a1.35,1.35,0,0,1,.49,0h.64a3.64,3.64,0,0,1,0,7.27H28.45A3.64,3.64,0,0,1,24.82,18a1.09,1.09,0,1,0-2.18,0A5.83,5.83,0,0,0,28,23.79v1.68a1.09,1.09,0,1,0,2.18,0V23.81h0a5.81,5.81,0,0,0,0-11.62h-.65a1,1,0,0,1-.49,0h-.64a3.64,3.64,0,0,1,0-7.27h1.77a3.63,3.63,0,0,1,3.63,3.64,1.09,1.09,0,0,0,2.18,0,5.81,5.81,0,0,0-5.81-5.81h0V1.09a1.09,1.09,0,0,0-2.18,0V2.77a5.8,5.8,0,0,0,.45,11.59Z"></path>
</svg>
