<svg xmlns="http://www.w3.org/2000/svg" viewBox="0 0 101 98"><path d="m56.213 5.038 10.03 20.88a7.334 7.334 0 0 0 5.634 4.092l22.956 3.088c5.265.708 7.372 7.192 3.529 10.86l-16.758 15.99a7.334 7.334 0 0 0-2.151 6.623l4.157 22.787c.954 5.225-4.562 9.233-9.237 6.711L53.985 85.074a7.334 7.334 0 0 0-6.962 0L26.635 96.069c-4.675 2.522-10.19-1.485-9.237-6.711l4.157-22.787a7.334 7.334 0 0 0-2.151-6.622L2.646 43.957C-1.197 40.29.91 33.806 6.175 33.097L29.13 30.01a7.334 7.334 0 0 0 5.633-4.093L44.795 5.04c2.3-4.789 9.118-4.789 11.418 0Z" fill="RGB(47, 46, 46)" stroke=""></path></svg>