<?xml version="1.0" encoding="UTF-8"?>
<svg xmlns="http://www.w3.org/2000/svg" width="58.78" height="59.38" viewBox="0 0 58.78 59.38">
  <g id="Groupe_7238" data-name="Groupe 7238" transform="translate(0.035)">
    <path id="Tracé_344" data-name="Tracé 344" d="M3.73,27.16a1,1,0,1,0,0,1.92,4.2,4.2,0,0,1,4.2,4.2h0a1,1,0,0,0,1.93,0,6.13,6.13,0,0,0-6.13-6.12Z" fill="RGB(47, 46, 46)"></path>
    <path id="Tracé_345" data-name="Tracé 345" d="M57.71,45.81a1,1,0,0,0,1-1h0v-28a1,1,0,0,0-1-1H55.47a1,1,0,1,0,0,1.93h1.28V43.89H34V37.21H47.4a6.13,6.13,0,0,0,6.13-6.12v-25A6.14,6.14,0,0,0,47.42,0a1,1,0,0,0-1,1V7.28H1a1,1,0,0,0-1,1H0v28a1,1,0,0,0,1,1H24.65v6.67H1.93v-3.4a1,1,0,0,0-1.93,0v4.36a1,1,0,0,0,1,1H24.65v4.72H1.93V48A1,1,0,0,0,0,48H0v3.5a1,1,0,0,0,1,1H24.65v4.95H1.93V54.83a1,1,0,1,0-1.93,0v3.55a1,1,0,0,0,1,1H57.71a1,1,0,0,0,1-1h0V54.83a1,1,0,1,0-1.93,0v2.59H34v-5H57.71a1,1,0,0,0,1-1V48a1,1,0,0,0-1.93,0v2.59H34V45.81ZM26.58,35.29V32.4a10.39,10.39,0,0,0,5.56,0v2.9Zm-5.84-13a8.6,8.6,0,1,1,8.6,8.6h0a8.61,8.61,0,0,1-8.61-8.6ZM48.38,2a4.22,4.22,0,0,1,3.24,4.09v20.5A6.25,6.25,0,0,0,48.38,25ZM34.06,9.2h12.4V25.92a1,1,0,0,0,1,1,4.2,4.2,0,1,1,0,8.4H34.06V31.65a10.52,10.52,0,0,0,0-18.81Zm-7.49,0h5.56v2.89a10.59,10.59,0,0,0-5.56,0ZM24.62,35.29H1.92V9.2H24.65v3.62a10.51,10.51,0,0,0,0,18.84v3.63Zm2,22.12V37.21H32.1v20.2Z" fill="RGB(47, 46, 46)"></path>
    <path id="Tracé_346" data-name="Tracé 346" d="M8.89,10.25a1,1,0,0,0-1,1h0a4.2,4.2,0,0,1-4.2,4.2h0a1,1,0,0,0,0,1.93,6.13,6.13,0,0,0,6.12-6.12,1,1,0,0,0-1-1Z" fill="RGB(47, 46, 46)"></path>
    <path id="Tracé_347" data-name="Tracé 347" d="M32.54,22.8a2.12,2.12,0,0,0,.11-.21.09.09,0,0,0,0-.05.58.58,0,0,0,0-.18v-.12a.88.88,0,0,0,0-.16h0a.88.88,0,0,0-.07-.23h0a.91.91,0,0,0-.11-.16h0l-.18-.15h-.05l-.17-.08h-.06a1,1,0,0,0-.24,0H28.9L32,17.1a.966.966,0,0,0-1.56-1.14l-4.16,5.72h0a1,1,0,0,0-.11.21.43.43,0,0,0,0,.05.58.58,0,0,0,0,.18.15.15,0,0,0,0,.07h0v.17h0a2.09,2.09,0,0,0,.08.23h0a.91.91,0,0,0,.11.16h0l.18.14h.05l.17.07h3.15l-3.05,4.18a1,1,0,0,0,1.56,1.13h0l4.16-5.71Z" fill="RGB(47, 46, 46)"></path>
  </g>
</svg>
