<svg xmlns="http://www.w3.org/2000/svg" viewBox="0 0 24 24" id="canadian-maple-leaf"><path fill="#F44336" d="M1.826 11.801 1 12.156s4.844 4.214 4.966 4.33c.241.234.472.352.241 1.055-.241.703-.476 1.645-.476 1.645s4.495-.942 4.972-1.059c.411-.042.864.117.864.586 0 .473-.274 5.286-.274 5.286h1.416s-.274-4.813-.274-5.287c0-.469.448-.628.869-.586.472.117 4.966 1.059 4.966 1.059s-.236-.942-.472-1.645c-.237-.703 0-.82.236-1.055.118-.117 4.966-4.33 4.966-4.33l-.826-.352c-.472-.23-.349-.539-.236-.816.114-.356.949-3.155.949-3.155s-2.252.469-2.724.586c-.354.112-.472-.117-.59-.352s-.708-1.519-.708-1.519-2.484 2.808-2.602 2.92c-.472.352-.949 0-.831-.469 0-.469 1.303-6.074 1.303-6.074s-1.421.816-1.894 1.05c-.354.234-.595.234-.831-.234C13.77 3.389 11.994 0 11.994 0l.001.002s-1.771 3.389-2.006 3.741c-.236.468-.472.468-.831.233-.472-.234-1.894-1.05-1.894-1.05S8.567 8.531 8.567 9c.119.47-.354.821-.83.47-.118-.117-2.602-2.92-2.602-2.92s-.59 1.28-.708 1.514c-.117.234-.235.464-.59.352-.476-.117-2.724-.586-2.724-.586s.831 2.798.949 3.155c.113.281.235.586-.236.816z"></path></svg>