<svg width="362" height="363" viewBox="0 0 362 363" fill="none" xmlns="http://www.w3.org/2000/svg">
<path d="M347.871 211.241C352.089 187.57 351.223 163.273 345.33 139.962C339.437 116.652 328.652 94.8617 313.691 76.0392C298.731 57.2167 279.937 41.7924 258.558 30.7908C237.179 19.7891 213.703 13.4617 189.691 12.2288C165.679 10.996 141.679 14.8858 119.286 23.6401C96.8922 32.3944 76.6174 45.8127 59.8077 63.004C42.9981 80.1953 30.0382 100.766 21.7888 123.351C13.5394 145.935 10.1892 170.016 11.9607 193.994L49.217 191.242C47.8359 172.548 50.4477 153.775 56.8789 136.168C63.3102 118.561 73.4137 102.524 86.5185 89.1218C99.6233 75.7195 115.43 65.2585 132.888 58.4337C150.346 51.6089 169.056 48.5764 187.776 49.5375C206.496 50.4986 224.797 55.4314 241.464 64.0084C258.131 72.5853 272.783 84.61 284.446 99.284C296.11 113.958 304.518 130.946 309.112 149.118C313.706 167.291 314.381 186.234 311.093 204.687L347.871 211.241Z" fill="#DFE2EA"/>
<path opacity="0.7" d="M266.351 80.1533C251.975 68.0458 235.187 59.1355 217.103 54.0139C199.019 48.8924 180.052 47.6768 161.463 50.448C142.873 53.2192 125.085 59.9137 109.281 70.0869C93.4768 80.2602 80.0179 93.6793 69.7979 109.453C59.578 125.227 52.8309 142.995 50.0048 161.577C47.1787 180.158 48.3381 199.129 53.4062 217.228C58.4742 235.327 67.3349 252.141 79.3997 266.553C91.4646 280.965 106.458 292.645 123.383 300.818L137.81 270.94C125.123 264.814 113.884 256.059 104.84 245.255C95.7962 234.452 89.1543 221.849 85.3552 208.282C81.5562 194.714 80.6871 180.494 82.8056 166.565C84.9241 152.637 89.9817 139.318 97.6425 127.494C105.303 115.67 115.392 105.611 127.239 97.9847C139.086 90.3589 152.419 85.3407 166.354 83.2634C180.289 81.1861 194.507 82.0973 208.063 85.9364C221.618 89.7755 234.202 96.4547 244.979 105.53L266.351 80.1533Z" fill="#DFE2EA"/>
<path opacity="0.3" d="M263.432 124.011C255.277 112.319 244.726 102.495 232.483 95.1926C220.239 87.8902 206.582 83.2762 192.418 81.6571C178.254 80.038 163.908 81.4508 150.332 85.8016C136.756 90.1524 124.261 97.3418 113.677 106.892C103.092 116.443 94.6611 128.136 88.9428 141.195C83.2244 154.254 80.3498 168.38 80.5098 182.635C80.6698 196.89 83.8608 210.948 89.8708 223.875C95.8809 236.803 104.572 248.303 115.368 257.614L134.429 235.512C126.768 228.906 120.6 220.745 116.336 211.572C112.071 202.398 109.807 192.423 109.693 182.307C109.58 172.192 111.619 162.168 115.677 152.901C119.735 143.635 125.718 135.337 133.228 128.56C140.739 121.783 149.605 116.682 159.239 113.594C168.872 110.507 179.052 109.505 189.103 110.653C199.154 111.802 208.845 115.076 217.533 120.258C226.221 125.44 233.708 132.411 239.495 140.708L263.432 124.011Z" fill="#DFE2EA"/>
<path d="M31.3583 162.681C21.1229 161.393 11.6729 168.659 11.5188 178.974C11.1044 206.699 17.4996 234.206 30.2693 259.033C45.8975 289.418 70.3436 314.37 100.402 330.617C130.46 346.864 164.726 353.648 198.708 350.078C232.689 346.509 264.798 332.753 290.824 310.614C316.85 288.476 335.577 258.989 344.55 226.02C353.524 193.051 352.324 158.14 341.107 125.865C329.891 93.5906 309.183 65.4591 281.698 45.1602C259.24 28.574 233.115 17.8501 205.682 13.8124C195.476 12.3102 186.789 20.4727 186.418 30.7821C186.048 41.0915 194.151 49.6155 204.305 51.4349C224.205 55.0005 243.108 63.1016 259.504 75.2108C280.931 91.0358 297.076 112.967 305.82 138.128C314.564 163.29 315.499 190.507 308.504 216.209C301.508 241.911 286.908 264.9 266.619 282.159C246.329 299.418 221.297 310.142 194.805 312.925C168.313 315.708 141.599 310.419 118.166 297.753C94.7323 285.087 75.6741 265.634 63.4904 241.946C54.1675 223.821 49.2029 203.863 48.8751 183.649C48.7078 173.334 41.5937 163.969 31.3583 162.681Z" fill="#0A98FF"/>
<path d="M64.4555 184.11C55.6618 184.307 48.5945 191.624 49.8446 200.33C52.7655 220.674 60.3915 240.136 72.2058 257.131C87.0621 278.502 107.883 295.023 132.071 304.635C156.259 314.246 182.741 316.52 208.213 311.175C233.686 305.829 257.019 293.1 275.303 274.576C293.586 256.052 306.008 232.554 311.02 207.014C316.032 181.474 313.411 155.023 303.484 130.963C293.557 106.904 276.764 86.3004 255.201 71.725C238.053 60.1342 218.493 52.7635 198.112 50.1092C189.39 48.9732 182.167 56.1355 182.085 64.9311C182.003 73.7267 189.112 80.7951 197.785 82.262C211.898 84.6492 225.403 90.0307 237.363 98.1148C253.742 109.186 266.498 124.837 274.039 143.112C281.579 161.388 283.57 181.48 279.763 200.88C275.956 220.28 266.52 238.13 252.632 252.2C238.744 266.271 221.02 275.94 201.671 280.001C182.322 284.061 162.206 282.334 143.833 275.033C125.461 267.732 109.645 255.182 98.3598 238.949C90.1199 227.096 84.5621 213.663 81.9904 199.582C80.4101 190.929 73.2493 183.913 64.4555 184.11Z" fill="#A3DEFF"/>
<path d="M102.431 216.232C95.06 219.49 91.6394 228.181 95.9295 235.004C102.969 246.199 112.176 255.937 123.059 263.618C137.933 274.114 155.378 280.374 173.532 281.728C191.686 283.083 209.867 279.48 226.133 271.307C242.399 263.133 256.139 250.694 265.887 235.319C275.634 219.944 281.023 202.211 281.477 184.012C281.93 165.813 277.432 147.833 268.463 131.991C259.494 116.15 246.391 103.042 230.552 94.0677C218.963 87.501 206.228 83.3279 193.099 81.7368C185.099 80.7671 178.697 87.5686 178.895 95.6254C179.093 103.682 185.848 109.901 193.777 111.345C201.608 112.77 209.18 115.502 216.164 119.46C227.403 125.828 236.702 135.13 243.066 146.371C249.431 157.612 252.622 170.371 252.3 183.284C251.978 196.198 248.155 208.782 241.238 219.692C234.321 230.602 224.571 239.429 213.028 245.229C201.486 251.029 188.585 253.585 175.703 252.624C162.821 251.663 150.442 247.221 139.887 239.773C133.328 235.144 127.627 229.461 122.997 222.987C118.31 216.431 109.803 212.974 102.431 216.232Z" fill="#D0EFFF"/>
<path d="M181.625 153.25C183.551 153.25 185.25 154.949 185.25 156.875V160.953C185.363 160.953 185.59 161.066 185.703 161.066C186.949 161.18 190.461 161.859 191.934 162.199C193.859 162.652 195.105 164.691 194.652 166.617C194.086 168.543 192.16 169.676 190.234 169.223C189.102 168.883 185.93 168.43 184.684 168.203C181.059 167.637 177.887 167.977 175.734 168.77C173.695 169.562 172.789 170.695 172.562 171.941C172.336 173.188 172.562 173.867 172.789 174.32C173.016 174.773 173.355 175.227 174.262 175.793C176.074 177.039 178.906 177.832 182.531 178.852H182.871C186.043 179.758 190.008 180.891 192.953 182.816C194.539 183.836 196.012 185.309 196.918 187.234C197.938 189.273 198.051 191.539 197.711 193.918C196.918 198.223 193.859 201.168 190.234 202.641C188.648 203.32 186.949 203.66 185.25 203.887V207.625C185.25 209.664 183.551 211.25 181.625 211.25C179.586 211.25 178 209.664 178 207.625V203.773C177.887 203.773 177.887 203.66 177.773 203.66C175.055 203.32 170.523 202.074 167.465 200.715C165.539 199.922 164.746 197.77 165.539 195.957C166.332 194.145 168.484 193.238 170.297 194.145C172.676 195.164 176.641 196.184 178.906 196.523C182.531 197.09 185.477 196.75 187.516 195.957C189.441 195.164 190.234 194.031 190.574 192.672C190.801 191.426 190.574 190.746 190.348 190.293C190.121 189.84 189.781 189.387 188.875 188.82C187.062 187.574 184.23 186.781 180.605 185.762H180.266C177.094 184.855 173.129 183.723 170.184 181.797C168.598 180.777 167.125 179.305 166.219 177.379C165.199 175.34 165.086 173.074 165.426 170.582C166.332 166.277 169.504 163.445 173.129 161.973C174.602 161.406 176.301 161.066 178 160.84V156.875C178 154.949 179.586 153.25 181.625 153.25Z" fill="#CBEAFF"/>
</svg>
