<svg width="34" height="34" viewBox="0 0 34 34" fill="none" xmlns="http://www.w3.org/2000/svg">
<path opacity="0.4" fill-rule="evenodd" clip-rule="evenodd" d="M14.8747 3.83337C8.77653 3.83337 3.83301 8.7769 3.83301 14.875C3.83301 16.5319 4.19766 18.101 4.84989 19.5089C4.88314 19.5807 4.91723 19.6535 4.95179 19.7272C5.46616 20.8249 6.08598 22.1477 5.60583 23.8185C5.50659 24.1639 5.34243 24.5168 5.21996 24.7802C5.1935 24.8371 5.16899 24.8898 5.14749 24.9373C5.00225 25.2586 4.93664 25.4548 4.92384 25.6107C4.91295 25.7433 5.02968 25.8507 5.16086 25.8288C5.60539 25.7548 5.91957 25.5943 6.35484 25.3719C6.51109 25.2921 6.68294 25.2043 6.88202 25.1097C7.61121 24.7632 8.49943 24.4704 9.71558 24.7564C9.97017 24.8163 10.5175 25.0122 11.4039 25.3293C11.4581 25.3488 11.5136 25.3686 11.5704 25.3889C11.9953 25.5409 12.4354 25.6602 12.9002 25.7467C13.4432 25.8476 13.8015 26.3696 13.7006 26.9126C13.5996 27.4556 13.0776 27.8139 12.5346 27.713C11.9661 27.6073 11.4231 27.4603 10.8968 27.2721L11.2168 26.3774L10.8968 27.2721C9.81648 26.8856 9.38376 26.733 9.25773 26.7033C8.64606 26.5595 8.24123 26.6782 7.74049 26.9161C7.6479 26.9601 7.54294 27.0144 7.42678 27.0744C6.9455 27.3232 6.27199 27.6713 5.48956 27.8016L5.32521 26.8152L5.48955 27.8016C4.07323 28.0376 2.81301 26.878 2.93055 25.447C2.97389 24.9193 3.17272 24.4505 3.32506 24.1135C3.36583 24.0233 3.40327 23.9422 3.43757 23.8678C3.55184 23.6203 3.63136 23.448 3.68363 23.2661L4.64473 23.5423L3.68363 23.2661C3.95266 22.3299 3.63842 21.6517 3.05409 20.3905L3.03515 20.3496C2.26346 18.6838 1.83301 16.8283 1.83301 14.875C1.83301 7.67233 7.67196 1.83337 14.8747 1.83337C19.5429 1.83337 23.6374 4.28683 25.9402 7.96989C26.233 8.43818 26.0907 9.05516 25.6225 9.34795C25.1542 9.64074 24.5372 9.49847 24.2444 9.03019C22.2917 5.90715 18.825 3.83337 14.8747 3.83337Z" fill="#0A98FF"/>
<path fill-rule="evenodd" clip-rule="evenodd" d="M14.583 21.25C14.583 16.0033 18.8363 11.75 24.083 11.75C29.3297 11.75 33.583 16.0033 33.583 21.25C33.583 22.6724 33.2695 24.0242 32.7072 25.238C32.2761 26.1686 32.1087 26.547 32.2652 27.0919C32.2955 27.1971 32.34 27.2936 32.4166 27.4599C32.4419 27.5147 32.4707 27.5772 32.5037 27.6501C32.6123 27.8903 32.7722 28.2613 32.8073 28.6885C32.9059 29.8896 31.8482 30.8628 30.6595 30.6648L30.8238 29.6784L30.6595 30.6648C30.0546 30.564 29.5217 30.2875 29.1861 30.1133C29.1114 30.0745 29.0464 30.0408 28.9927 30.0152C28.6728 29.8632 28.4581 29.8051 28.1152 29.8857C28.1164 29.8854 28.1163 29.8855 28.1148 29.8859C28.1098 29.8873 28.0884 29.8932 28.0426 29.9079C27.9883 29.9253 27.9153 29.9499 27.8184 29.9835C27.6244 30.0509 27.3565 30.1467 26.99 30.2778L26.6532 29.3362L26.99 30.2778C26.0972 30.5971 25.151 30.75 24.083 30.75C18.8363 30.75 14.583 26.4967 14.583 21.25ZM24.083 13.75C19.9409 13.75 16.583 17.1079 16.583 21.25C16.583 25.3921 19.9409 28.75 24.083 28.75C24.9519 28.75 25.6668 28.627 26.3164 28.3946C26.3651 28.3772 26.4126 28.3602 26.4589 28.3436C27.0603 28.1284 27.4606 27.9851 27.6574 27.9388L27.6574 27.9388C28.6047 27.716 29.3028 27.9483 29.8511 28.2088C30.014 28.2863 30.1461 28.3537 30.2603 28.412C30.4539 28.5109 30.5961 28.5834 30.7497 28.6339C30.7319 28.5891 30.7095 28.5364 30.6812 28.4739C30.6682 28.4451 30.6526 28.4116 30.6352 28.3742C30.5494 28.1902 30.4203 27.9131 30.343 27.6443C29.9725 26.3549 30.4561 25.3263 30.8171 24.5584C30.843 24.5034 30.8682 24.4497 30.8925 24.3974C31.3353 23.4414 31.583 22.3759 31.583 21.25C31.583 17.1079 28.2251 13.75 24.083 13.75Z" fill="#0A98FF"/>
</svg>
