<svg width="169" height="58" viewBox="0 0 169 58" fill="none" xmlns="http://www.w3.org/2000/svg">
<path d="M164.919 0.606079C164.702 0.0984496 164.114 -0.136701 163.606 0.0808557L155.334 3.62615C154.826 3.8437 154.591 4.43158 154.809 4.93921C155.026 5.44684 155.614 5.68199 156.122 5.46443L163.475 2.31307L166.626 9.66622C166.844 10.1738 167.432 10.409 167.939 10.1914C168.447 9.97389 168.682 9.38601 168.464 8.87838L164.919 0.606079ZM0.238757 36.6485C6.13324 43.5681 18.4419 51.7952 32.1834 55.4048C45.953 59.0216 61.3696 58.0447 73.2071 46.2072L71.7929 44.793C60.6304 55.9555 46.047 56.9785 32.6916 53.4704C19.3081 49.9549 7.36676 41.932 1.76124 35.3516L0.238757 36.6485ZM73.2071 46.2072C78.2699 41.1444 79.8577 35.8982 79.0895 30.9937C78.3303 26.1464 75.2977 21.8114 71.4741 18.4377C67.6447 15.0588 62.9293 12.5596 58.6238 11.4164C56.4705 10.8446 54.3797 10.6013 52.5301 10.7832C50.6817 10.9649 49.0056 11.5802 47.7929 12.793L49.2071 14.2072C49.9944 13.4199 51.1777 12.9258 52.7258 12.7736C54.2727 12.6215 56.1155 12.8196 58.1106 13.3494C62.1019 14.4092 66.5429 16.7538 70.1509 19.9374C73.7649 23.1262 76.451 27.0724 77.1136 31.3032C77.7673 35.4768 76.4802 40.1057 71.7929 44.793L73.2071 46.2072ZM47.7929 12.793C45.4095 15.1764 45.1518 18.9241 46.4228 22.8838C47.7046 26.8769 50.5957 31.326 54.934 35.4729C63.6261 43.7815 78.2511 51 98 51V49C78.7489 49 64.6239 41.9685 56.316 34.0272C52.1543 30.0491 49.4829 25.8732 48.3272 22.2726C47.1607 18.6385 47.5905 15.8237 49.2071 14.2072L47.7929 12.793ZM98 51C124.765 51 140.3 41.7673 149.756 30.842C159.15 19.9887 162.479 7.49425 164.928 1.37139L163.072 0.628611C160.521 7.00582 157.35 19.0114 148.244 29.5331C139.2 39.9828 124.235 49 98 49V51Z" fill="#fff"/>
</svg>
