<svg width="70" height="45" viewBox="0 0 70 38" fill="none" xmlns="http://www.w3.org/2000/svg">
<path d="M49.746 26.5055H52.6515V13.9347H49.746V26.5055ZM35.3369 22.8885C35.2776 23.1849 35.1591 23.4814 34.9812 23.7186C34.8626 23.9558 34.6254 24.1337 34.4475 24.2523C34.2103 24.3709 33.9731 24.4302 33.6766 24.4302C33.3802 24.4302 33.143 24.3709 32.9058 24.2523C32.6686 24.1337 32.4907 23.9558 32.3721 23.7186C32.1942 23.4814 32.1349 23.1849 32.0163 22.8885C31.957 22.592 31.8977 22.2362 31.8977 21.8804C31.8977 21.5246 31.957 21.1689 32.0163 20.8724C32.0756 20.5759 32.1942 20.2794 32.3721 20.0422C32.4907 19.805 32.7279 19.6271 32.9058 19.5085C33.143 19.39 33.3802 19.3307 33.6766 19.3307C33.9731 19.3307 34.2696 19.39 34.4475 19.5085C34.6847 19.6271 34.8626 19.805 34.9812 20.0422C35.1591 20.2794 35.2183 20.5759 35.3369 20.8724C35.3962 21.1689 35.4555 21.5246 35.4555 21.8804C35.4555 22.2362 35.4555 22.592 35.3369 22.8885ZM37.1751 18.204C36.8194 17.7889 36.4043 17.4925 35.9299 17.3146C35.4555 17.1367 34.9812 17.0181 34.5661 17.0181C33.9731 17.0181 33.4395 17.1367 32.9058 17.3739C32.6093 17.4925 32.3128 17.6704 32.0756 17.9075V13.9347H29.1108V26.5055H31.8977V25.8533C32.1349 26.0905 32.4314 26.2684 32.7279 26.387C33.2616 26.6241 33.8545 26.6834 34.5661 26.6834C35.0405 26.6834 35.5148 26.5648 35.9892 26.387C36.4636 26.2091 36.8787 25.9126 37.2344 25.4975C37.5902 25.0824 37.8867 24.6081 38.1239 24.0151C38.3611 23.4221 38.4797 22.7106 38.4797 21.8804C38.4797 21.0503 38.3611 20.3387 38.1239 19.7457C37.8274 19.0935 37.5309 18.6191 37.1751 18.204ZM24.7229 22.8885C24.6636 23.1849 24.545 23.4814 24.4264 23.7186C24.3078 23.9558 24.0706 24.1337 23.8927 24.2523C23.6555 24.3709 23.359 24.4302 23.0033 24.4302C22.6475 24.4302 22.351 24.3709 22.1138 24.2523C21.8766 24.1337 21.6987 23.9558 21.5801 23.7186C21.4615 23.4814 21.3429 23.1849 21.2837 22.8885C21.2244 22.592 21.1651 22.2362 21.1651 21.9397C21.1651 21.5839 21.2244 21.2874 21.2837 20.991C21.3429 20.6945 21.4615 20.398 21.5801 20.1608C21.6987 19.9236 21.9359 19.7457 22.1138 19.6271C22.351 19.5085 22.6475 19.4492 23.0033 19.4492C23.359 19.4492 23.6555 19.5085 23.8927 19.6864C24.1299 19.805 24.3078 19.9829 24.4857 20.2201C24.6043 20.4573 24.7229 20.6945 24.7822 21.0503C24.8414 21.3467 24.9007 21.7025 24.9007 21.999C24.8414 22.2362 24.8414 22.5327 24.7229 22.8885ZM26.4425 18.3819C26.0274 17.9668 25.553 17.6111 24.96 17.3739C24.3671 17.1367 23.7148 17.0181 23.0033 17.0181C22.2917 17.0181 21.6394 17.1367 21.0465 17.3739C20.4535 17.6111 19.9791 17.9668 19.564 18.3819C19.149 18.797 18.8525 19.3307 18.6153 19.9236C18.3781 20.5166 18.2595 21.1689 18.2595 21.9397C18.2595 22.6513 18.3781 23.3035 18.6153 23.8965C18.8525 24.4895 19.149 25.0231 19.564 25.4382C19.9791 25.8533 20.5128 26.2091 21.0465 26.4462C21.6394 26.6834 22.2917 26.802 23.0033 26.802C23.7148 26.802 24.3671 26.6834 24.96 26.4462C25.553 26.2091 26.0274 25.9126 26.4425 25.4382C26.8575 25.0231 27.154 24.4895 27.3912 23.8965C27.6284 23.3035 27.747 22.6513 27.747 21.9397C27.747 21.2281 27.6284 20.5166 27.3912 19.9236C27.2133 19.3307 26.8575 18.797 26.4425 18.3819ZM14.0495 26.5055H16.955V13.9347H14.0495V26.5055ZM45.2395 22.8885C45.2395 23.007 45.2395 23.1849 45.1802 23.4221C45.1802 23.6 45.1209 23.7779 45.0023 24.0151C44.8837 24.193 44.7651 24.3709 44.5279 24.4895C44.2907 24.6081 43.9942 24.6673 43.5792 24.6673C43.4013 24.6673 43.2234 24.6673 43.1048 24.6081C42.9862 24.6081 42.8083 24.5488 42.749 24.4895C42.6304 24.4302 42.5711 24.3709 42.5118 24.2523C42.4525 24.1337 42.4525 24.0151 42.4525 23.8372C42.4525 23.6593 42.4525 23.4814 42.5118 23.4221C42.5711 23.3035 42.6304 23.2442 42.749 23.1256C42.8676 23.0663 42.9862 23.007 43.1048 22.9477C43.2827 22.8885 43.4606 22.8292 43.5792 22.8292C43.7571 22.7699 43.935 22.7699 44.1128 22.7699C44.2907 22.7699 44.4686 22.7106 44.6465 22.7106C44.8244 22.6513 45.0023 22.6513 45.1802 22.592C45.1802 22.592 45.1802 22.592 45.2395 22.592V22.8885ZM47.7299 18.3226C47.4927 17.9668 47.137 17.6704 46.7219 17.4925C46.3068 17.3146 45.8917 17.196 45.4174 17.0774C44.943 17.0181 44.5279 16.9588 44.0535 16.9588C43.5792 16.9588 43.0455 17.0181 42.5711 17.0774C42.0968 17.196 41.6224 17.3739 41.2073 17.6111C40.7922 17.8482 40.4364 18.204 40.1993 18.5598C39.9028 18.9749 39.7842 19.5085 39.7249 20.1015V20.2794H42.6304V20.1015C42.6897 19.6864 42.8083 19.39 42.9862 19.2714C43.2234 19.0935 43.5199 19.0342 43.9349 19.0342C44.1128 19.0342 44.2907 19.0342 44.4686 19.0935C44.6465 19.0935 44.7651 19.1528 44.8837 19.2121C45.0023 19.2714 45.0616 19.3307 45.1209 19.4492C45.1802 19.5678 45.2395 19.7457 45.2395 19.9236C45.2395 20.1608 45.1802 20.2201 45.1209 20.2794C45.0023 20.398 44.8244 20.4573 44.5872 20.5166C44.35 20.5759 44.0535 20.6352 43.6978 20.6352C43.342 20.8724 42.9862 20.9317 42.6304 20.9317C42.2746 20.991 41.9189 21.0503 41.5631 21.1689C41.2073 21.2874 40.8515 21.406 40.555 21.6432C40.2586 21.8804 40.0214 22.1176 39.7842 22.4734C39.6063 22.8292 39.4877 23.3035 39.4877 23.8372C39.4877 24.3116 39.547 24.7266 39.7249 25.1417C39.9028 25.4975 40.14 25.794 40.4364 26.0312C40.7329 26.2684 41.0887 26.4462 41.4445 26.5648C41.8003 26.6834 42.2153 26.7427 42.6897 26.7427C43.2234 26.7427 43.8164 26.6834 44.35 26.5055C44.7651 26.387 45.1209 26.2091 45.4174 25.9719V26.0312V26.5648H48.145V19.805C48.145 19.2121 47.9671 18.7377 47.7299 18.3226ZM6.69669 22.2362V19.7457H12.2706V26.5055H9.83941V25.5568C9.48363 25.9126 9.06855 26.2091 8.65348 26.387C8.06051 26.6241 7.40825 26.7427 6.81528 26.7427C5.86654 26.7427 4.97709 26.5648 4.20623 26.2684C3.43538 25.9126 2.78311 25.4382 2.24945 24.9045C1.71578 24.3116 1.3007 23.6 1.06351 22.8292C0.767031 21.999 0.648438 21.1689 0.648438 20.2794C0.648438 19.3307 0.767031 18.5005 1.06351 17.6704C1.36 16.8995 1.77507 16.1879 2.24945 15.595C2.78311 15.002 3.43538 14.5276 4.20623 14.1719C4.97709 13.8161 5.86654 13.6382 6.81528 13.6382C7.46755 13.6382 8.06051 13.7568 8.71277 13.9347C9.30574 14.1126 9.83941 14.409 10.3731 14.8241C10.7882 15.1206 11.1439 15.5357 11.4404 15.9508C11.8555 16.603 12.2113 17.3739 12.3299 18.204H9.54293C9.00926 16.9588 7.88262 16.3658 6.69669 16.3658C4.91779 16.3658 3.43538 18.1447 3.43538 20.2794C3.43538 22.4141 4.91779 24.193 6.69669 24.193C7.34895 24.193 7.88262 23.9558 8.41629 23.6C8.47559 23.5407 8.59418 23.4814 8.65348 23.4221C8.77207 23.3035 8.89066 23.1849 8.94996 23.1256C9.18715 22.8885 9.36504 22.5327 9.54293 22.2362H6.69669ZM21.1058 28.8774H22.7661H22.944V29.0553V37.1789V37.3568H22.7661H20.9872H20.8686L20.8093 37.2975L17.8444 32.3166V37.1789V37.3568H17.6666H16.0063H15.8284V37.1789V29.0553V28.8774H16.0063H17.7852H17.8444L17.9037 28.9367L20.9872 33.9176V29.0553V28.8774H21.1058ZM27.8063 35.5186H32.0163H32.1942V35.6965V37.1789V37.3568H32.0163H25.8495H25.6716V37.1789V29.0553V28.8774H25.8495H31.8977H32.0756V29.0553V30.5377V30.7156H31.8977H27.8063V32.1387H31.542H31.7199V32.3166V33.6804V33.8583H31.542H27.8063V35.5186ZM42.8083 28.8774H44.5279H44.7651L44.7058 29.1146L42.5118 37.2382L42.4525 37.3568H42.3339H40.555H40.4364L40.3772 37.2382L39.1912 32.3759L38.0053 37.2382V37.3568H37.8867H36.1078H35.9892L35.9299 37.2382L33.7952 29.1146L33.7359 28.8774H33.9731H35.752H35.8706L35.9299 28.996L37.0565 33.8583L38.3018 28.996L38.3611 28.8774H38.4797H40.14H40.2586L40.3179 28.996L41.5631 33.9176L42.749 28.996L42.8083 28.8774ZM52.948 33.5618C53.1852 33.8583 53.2445 34.2734 53.2445 34.8071C53.2445 35.2221 53.1852 35.5779 53.0073 35.9337C52.8294 36.2895 52.6515 36.586 52.2958 36.8231C51.9993 37.0603 51.6435 37.2382 51.1691 37.4161C50.7541 37.5347 50.2204 37.594 49.6867 37.594C49.2123 37.594 48.7973 37.5347 48.3229 37.4161C47.9078 37.2975 47.4927 37.1196 47.137 36.8824C46.7812 36.6453 46.544 36.2895 46.3068 35.9337C46.1289 35.5186 46.0103 35.1035 46.0103 34.5699V34.392H46.3068H48.0264H48.2043V34.5699C48.2043 34.8071 48.2636 35.0443 48.3229 35.1628C48.3822 35.3407 48.5008 35.4593 48.6787 35.5779C48.7973 35.6965 48.9752 35.7558 49.2123 35.8151C49.3902 35.8744 49.6274 35.8744 49.8646 35.8744C50.0425 35.8744 50.1611 35.8744 50.339 35.8151C50.5169 35.8151 50.6355 35.7558 50.8134 35.6965C50.9319 35.6372 51.0505 35.5186 51.1691 35.4593C51.2284 35.3407 51.2877 35.2221 51.2877 35.0443C51.2877 34.8664 51.2284 34.7478 51.1098 34.6292C50.9912 34.5106 50.8134 34.392 50.6355 34.3327C50.3983 34.2734 50.1611 34.1548 49.8646 34.0955C49.5681 34.0362 49.2716 33.9769 48.9752 33.8583C48.6787 33.799 48.3822 33.6804 48.0857 33.5618C47.7892 33.4432 47.4927 33.3247 47.2556 33.0875C47.0184 32.9096 46.7812 32.6724 46.6626 32.3759C46.4847 32.0794 46.4254 31.7236 46.4254 31.3679C46.4254 30.8935 46.544 30.5377 46.7219 30.1819C46.8998 29.8262 47.137 29.589 47.4927 29.3518C47.7892 29.1146 48.145 28.996 48.5008 28.8774C48.8566 28.7588 49.2716 28.6995 49.6274 28.6995C50.0425 28.6995 50.4576 28.7588 50.8726 28.8181C51.2877 28.9367 51.6435 29.0553 51.94 29.2925C52.2365 29.5297 52.533 29.8262 52.7108 30.1819C52.8887 30.5377 53.0073 30.9528 53.0073 31.4865V31.6643H52.8294H51.1098H50.9319V31.4865C50.9319 31.2493 50.8727 31.0714 50.8134 30.9528C50.7541 30.8342 50.6355 30.7156 50.5169 30.6563C50.3983 30.597 50.2204 30.5377 50.1018 30.4784C49.9239 30.4191 49.746 30.4191 49.5088 30.4191C49.3902 30.4191 49.2716 30.4191 49.0938 30.4784C48.9752 30.4784 48.8566 30.5377 48.738 30.597C48.6194 30.6563 48.5601 30.7156 48.5008 30.8342C48.4415 30.8935 48.4415 31.0121 48.4415 31.19C48.4415 31.3086 48.4415 31.4272 48.5008 31.4865C48.5008 31.5458 48.6194 31.605 48.7973 31.6643C48.9752 31.7236 49.2123 31.8422 49.5088 31.9015L50.7541 32.198C50.9319 32.2573 51.1098 32.3166 51.4063 32.3759C51.7028 32.4352 51.9993 32.6131 52.2365 32.791C52.533 32.9689 52.7701 33.2654 52.948 33.5618Z" fill="#282828"/>
<path d="M56.627 32.4352H56.5677C56.5084 32.4352 56.4491 32.3759 56.4491 32.3166V23.3629C56.4491 23.3036 56.4491 23.3036 56.5084 23.2443L61.9044 19.3307C62.1416 19.1528 62.2009 18.9156 62.2009 18.7377C62.2009 18.5598 62.1416 18.3819 61.9637 18.3226L49.9265 9.60605C49.8672 9.60605 49.8672 9.54675 49.8672 9.48745V0.118593C49.8672 0.0592966 49.9265 0 49.9858 0H50.0451L69.3758 13.9347C69.4351 13.9347 69.4351 13.994 69.4351 14.0533V23.0664C69.4351 23.1257 69.4351 23.1257 69.3758 23.185L56.627 32.4352Z" fill="#464646"/>
</svg>
