<svg width="50" height="50" viewBox="0 0 52 52" fill="none" xmlns="http://www.w3.org/2000/svg">
<path fill-rule="evenodd" clip-rule="evenodd" d="M0 0H51.323V51.323H0V0Z" fill="#404040"/>
<path fill-rule="evenodd" clip-rule="evenodd" d="M10.9211 1.7627V5.04223C10.6631 5.05763 10.4516 5.10639 10.1911 5.12435L9.62356 3.04577C9.46105 2.49405 9.34755 2.34778 8.64849 2.34778H7.47994V12.1684H9.02252V12.7535H3.74474V12.1684H5.27184V2.34778H4.13425C3.4842 2.34778 3.29074 2.44529 3.12822 3.04577L2.56072 5.12435C2.30018 5.10639 2.08866 5.05763 1.82812 5.04223L1.94421 1.7627H10.9211Z" fill="white"/>
<path fill-rule="evenodd" clip-rule="evenodd" d="M21.3111 12.7535H16.5363V12.1684H17.6404V7.68793H14.3127V12.1684H15.4323V12.7535H10.8536V12.1684H12.1046V2.34778H10.7891V1.7627H15.4323V2.34778H14.3127V6.84367H17.6404V2.34778H16.5363V1.7627H20.9706V2.34778H19.8485V12.1684H21.3111V12.7535Z" fill="white"/>
<path fill-rule="evenodd" clip-rule="evenodd" d="M29.252 9.36106L29.1385 12.7535H21.1342V12.1684H22.5297V2.34778H21.5056V1.7627H28.78V5.00887C28.522 5.04223 28.3105 5.04223 28.0654 5.07559L27.4979 3.14328C27.3199 2.57616 27.0594 2.34778 26.4584 2.34778H24.7378V6.79491H27.5469V7.70589H24.7378C24.7378 7.88296 24.7223 9.03516 24.7223 9.669C24.7043 10.6749 24.7043 11.7963 24.7043 12.1684H26.9124C27.4979 12.1684 27.8565 11.8117 28.0835 11.0804L28.5375 9.23019L29.252 9.36106ZM10.4806 24.4834L9.47453 24.5629C8.80901 24.7913 7.64046 25.0505 6.99041 25.0505C4.31283 25.0505 2.20017 23.2644 2.20017 19.5461C2.20017 16.6746 4.03424 13.6876 7.0549 13.6876C8.85802 13.6876 9.87952 14.1084 10.2045 14.3189V17.2417L9.42552 17.4213C8.93798 15.5686 8.45303 14.401 7.08844 14.401C5.22084 14.401 4.57079 16.69 4.57079 19.2382C4.57079 23.1182 5.59487 24.2704 7.11939 24.2704C7.55792 24.2704 7.96549 24.1575 8.33953 24.0446V21.0242H7.21742V20.4391H10.4806V24.4834ZM11.0816 24.2704H12.2501V14.4497H11.1306V13.8646H15.6784V14.4497H14.4608C14.4608 23.0848 14.4608 24.1729 14.3938 24.2704H16.0008C16.6354 24.2704 16.9449 23.9958 17.221 23.1669L17.8375 21.2834C18.08 21.3167 18.276 21.3167 18.5185 21.3501L18.276 24.8555H11.0816V24.2704ZM18.5984 19.4973C18.5984 16.3974 19.9811 13.6876 23.1307 13.6876C25.9708 13.6876 27.6759 15.7482 27.6759 19.2382C27.6759 22.3406 26.2804 25.0505 23.1307 25.0505C20.466 25.0505 18.5984 23.2157 18.5984 19.4973ZM25.3388 19.3844C25.3388 15.0348 24.0078 14.4497 23.1307 14.4497C21.8306 14.4497 20.9381 15.6353 20.9381 19.3511C20.9381 23.4261 22.1557 24.2883 23.1307 24.2883C24.2503 24.2883 25.3388 23.2978 25.3388 19.3844ZM32.6777 24.8555H28.05V24.2704H29.203V14.4497H28.05V13.8646H32.5797C34.8858 13.8646 36.1033 14.9373 36.1033 16.7054C36.1033 17.6164 35.2108 18.784 33.9933 19.1406V19.2382C35.3553 19.5461 36.3458 20.6521 36.3458 21.966C36.3458 23.6699 34.9838 24.8555 32.6777 24.8555ZM31.4266 18.8661H32.7912C33.5702 18.8661 34.0087 17.9397 34.0087 16.8696C34.0087 15.099 33.3768 14.4497 32.5642 14.4497H31.4266V18.8661ZM32.7086 19.5461H31.4266V23.8983C31.4266 24.1267 31.4266 24.2704 31.5891 24.2704H32.6932C33.4567 24.2704 34.0913 23.8495 34.0913 21.9506C34.0913 20.57 33.7663 19.5461 32.7086 19.5461ZM44.6933 21.463L44.5798 24.8555H36.5728V24.2704H37.971V14.4497H36.9469V13.8646H44.2212V17.1108C43.9633 17.1442 43.7518 17.1442 43.5067 17.1775L42.9392 15.2452C42.7612 14.6756 42.5007 14.4497 41.8996 14.4497H40.1791V18.8969H42.9882V19.8078H40.1791C40.1791 19.9849 40.161 21.1371 40.161 21.771C40.1455 22.7769 40.1455 23.8983 40.1455 24.2704H42.3536C42.9392 24.2704 43.2952 23.9137 43.5222 23.1823L43.9788 21.3321L44.6933 21.463ZM4.40827 32.8182L3.84077 34.7967C3.78777 35.0534 3.76098 35.3148 3.7608 35.5768C3.7608 36.2748 4.05229 36.2902 5.00931 36.3723H5.10733V36.9574H1.61719V36.3877H1.63266C2.3472 36.3877 2.72124 35.8052 2.94824 35.1072C2.94824 35.1072 5.34981 27.6218 5.75738 25.9666H7.26643L10.4496 36.3723H11.3911V36.9574H6.87691V36.3723H8.07899L7.0549 32.8182H4.40827ZM5.72385 28.1915L4.57079 32.2331H6.87691L5.72385 28.1915Z" fill="white"/>
<path fill-rule="evenodd" clip-rule="evenodd" d="M20.2292 26.5519C19.4347 26.5673 18.9961 26.7469 18.9961 27.4603V36.9576H18.1346C16.4295 34.1477 14.7734 31.3249 13.0864 28.4996V35.2999C13.0864 35.9825 13.1663 36.3571 14.5129 36.3879V36.9576H11.3142V36.3725C11.8198 36.3571 12.3047 36.2263 12.3047 35.2845V27.3474C12.0287 26.9907 11.6882 26.634 11.2188 26.4852V25.9668H14.0924C15.4724 28.3046 16.8525 30.609 18.2481 32.9313V27.4603C18.2481 26.8598 18.0546 26.5519 16.9015 26.5519V25.9668H20.2292V26.5519Z" fill="white"/>
<path fill-rule="evenodd" clip-rule="evenodd" d="M24.5422 36.9576H20.126V36.3725H21.3435V26.5519H20.046V25.9668H24.3977C27.4984 25.9668 29.6265 28.1916 29.6265 31.3249C29.6265 34.4094 27.7589 36.9576 24.5422 36.9576ZM23.5697 26.5519V35.885C23.5697 36.1929 23.6832 36.3725 23.9412 36.3725C26.1518 36.3725 27.1424 35.0099 27.1424 31.4532C27.1424 28.012 25.8913 26.5519 23.5697 26.5519ZM9.49045 49.0596V48.4745H10.5635L10.1405 40.114C9.21444 42.5826 8.32191 44.9666 7.41391 47.4506L7.05535 47.6148C6.13186 44.9845 5.14131 42.3055 4.21525 39.6752V39.593C4.15076 41.5254 4.08369 42.7597 4.0192 44.6586C3.97019 46.0238 3.92118 47.4506 3.92118 47.6456C3.92118 47.9869 4.1327 48.4591 5.51277 48.4899V49.0596H1.66406V48.5232C2.63914 48.4745 3.01317 48.0998 3.04671 47.6456C3.19116 45.6004 3.40269 41.9821 3.50071 40.0319V39.9189C3.50071 38.8309 3.41816 38.6538 2.29863 38.6538V38.0688H5.92034C6.56781 40.0011 7.28235 41.9821 7.96593 43.9119L10.0451 38.0688H13.4707V38.6538H12.2196L12.8052 48.4745H13.9557V49.0596H9.49045Z" fill="white"/>
<path fill-rule="evenodd" clip-rule="evenodd" d="M16.2859 44.92L15.7158 46.8985C15.6628 47.1552 15.636 47.4165 15.6358 47.6786C15.6358 48.3766 15.9273 48.392 16.8843 48.4741H16.9823V49.0592H13.4922V48.4895H13.5077C14.2222 48.4895 14.5962 47.9044 14.8232 47.2064C14.8232 47.2064 17.2274 39.7235 17.6324 38.0684H19.1414L22.3246 48.4741H23.2661V49.0592H18.7519V48.4741H19.954L18.9325 44.92H16.2859ZM17.5988 40.2932L16.4458 44.3349H18.7519L17.5988 40.2932Z" fill="white"/>
<path fill-rule="evenodd" clip-rule="evenodd" d="M26.4156 48.4745V38.6539H27.4242V38.0688H23.0234V38.6539H24.0449V48.4745H23.0544V49.0596H27.4242V48.4745H26.4156ZM34.714 45.4875L34.0975 47.3711C33.8189 48.1974 33.5119 48.4745 32.8774 48.4745H31.2703C31.3348 48.377 31.3348 47.2889 31.3348 38.6539H32.5549V38.0688H28.0072V38.6539H29.1267V48.4745H28.0072V49.0596H35.1525L35.395 45.5517C35.1525 45.5209 34.9565 45.5209 34.714 45.4875ZM36.9763 44.0274C36.9763 44.0274 36.7828 43.9709 36.7544 44.1813C36.7415 44.2686 36.7751 44.3456 36.8783 44.4226C36.8989 44.438 36.935 44.4508 36.9608 44.4508C37.3529 44.4816 37.8121 43.8272 38.1061 43.3371C38.2403 43.1138 38.2919 43.0394 38.3538 43.0394C38.3821 43.0394 38.4905 43.0291 38.6117 43.2344C38.7742 43.5039 39.5816 44.2789 40.6109 44.0659C40.6522 43.9684 40.469 43.8914 40.3478 43.8323C40.3478 43.8323 39.9247 43.5039 40.469 43.3499C41.0159 43.2344 41.2764 43.4269 41.7407 43.0599C41.7614 42.9445 41.4983 42.8854 41.4983 42.8854C41.4983 42.8854 41.1758 42.693 42.1251 42.421C42.5894 42.3055 42.5894 42.2285 42.5094 42.1695C42.4269 42.113 42.2051 42.036 42.5275 41.8231C42.8732 41.6101 43.095 41.3201 43.0744 41.2226C43.0125 41.1456 42.8732 41.1661 42.69 41.2611C42.4888 41.3586 42.2257 41.2996 42.0864 41.0866C41.9445 40.8761 41.8026 40.9146 41.6221 41.0481C41.4389 41.1841 41.0752 41.3765 40.9127 41.0481C40.8121 40.6811 40.8534 40.7786 41.1345 40.2757C41.4183 39.7727 41.4776 39.3672 41.4776 39.2903C41.4776 39.2133 41.4389 39.1722 41.1758 39.2903C40.954 39.3467 40.9333 38.2638 40.9127 38.1098C40.9127 38.1098 40.9127 37.8199 40.7321 38.0713C40.5903 38.2458 40.0253 38.7668 39.8422 38.8258C39.6616 38.8822 39.4011 38.7283 39.4398 38.5153C39.4398 38.3023 39.2979 38.3793 39.236 38.5153C39.1767 38.6513 38.7536 39.9652 38.653 40.0447C38.5498 40.1217 38.4699 40.3142 38.2893 39.9857C38.1061 39.6572 37.7914 38.8771 37.4948 39.262C37.4122 39.1851 36.8963 38.5153 36.4707 38.4973C36.4114 38.5743 36.512 38.7668 36.5919 38.8258C36.6745 38.9233 36.6745 39.1928 36.5919 39.3852C36.512 39.5802 36.512 39.8317 36.6126 40.0627C36.6745 40.1782 36.5919 40.3732 36.2488 40.4117C35.9058 40.4502 35.9651 40.5451 36.107 40.7196C36.2489 40.8941 36.7751 41.3201 36.8963 41.4741C37.015 41.6306 36.8757 41.8231 36.6332 41.841C36.3907 41.8615 36.1689 41.7846 36.107 41.918C36.0889 42.054 36.2901 41.9976 36.3701 42.113C36.3701 42.113 36.8138 42.8854 37.3993 42.8469C37.9849 42.8085 38.0133 42.8854 37.9462 43.119C37.8869 43.3217 37.4148 43.9786 36.9763 44.0274Z" fill="white"/>
</svg>
