<?xml version="1.0" encoding="UTF-8"?>
<svg xmlns="http://www.w3.org/2000/svg" id="Layer_1" data-name="Layer 1" viewBox="0 0 62.2 55.39">
  <defs>
    <style>.cls-1{fill:RGB(47, 46, 46);}</style>
  </defs>
  <path class="cls-1" d="M10.45,4.39a1,1,0,0,0-2,0A4.46,4.46,0,0,1,4,8.84a1,1,0,0,0-1,1,1,1,0,0,0,1,1A6.51,6.51,0,0,0,10.45,4.39Z"></path>
  <path class="cls-1" d="M25.77,26.15V27a1,1,0,0,0,2,0V4.74a1,1,0,1,0-2,0v.87A9.73,9.73,0,0,0,20,14.47v2.81A9.74,9.74,0,0,0,25.77,26.15ZM22,14.47A7.67,7.67,0,0,1,25.77,7.9v16A7.69,7.69,0,0,1,22,17.28Z"></path>
  <path class="cls-1" d="M61.17,49a1,1,0,0,0-1,1h0v3.36H36.06v-6H61.17a1,1,0,0,0,1-1h0V41.93a1,1,0,0,0-2,0h0v3.36H36.06v-6H61.17a1,1,0,0,0,1-1V33.86a1,1,0,0,0-2,0h0v3.36H34V53.35H28.17V37.25l-2,0H2.05V33.87a1,1,0,0,0-1-1,1,1,0,0,0-1,1v4.37a1,1,0,0,0,1,1h25.1v6H2.05V41.93a1,1,0,0,0-1-1,1,1,0,0,0-1,1v4.38a1,1,0,0,0,1,1h25.1v6H2.05V50a1,1,0,0,0-1-1,1,1,0,0,0-1,1v4.38a1,1,0,0,0,1,1H61.17a1,1,0,0,0,1-1h0V50A1,1,0,0,0,61.17,49Z"></path>
  <path class="cls-1" d="M58.24,8.84a4.46,4.46,0,0,1-4.45-4.45,1,1,0,0,0-2,0h0a6.5,6.5,0,0,0,6.49,6.49,1,1,0,0,0,1-1A1,1,0,0,0,58.24,8.84Z"></path>
  <path class="cls-1" d="M59.25,22.3a1,1,0,0,0-1-1,6.51,6.51,0,0,0-6.49,6.49h0a1,1,0,0,0,2,0,4.45,4.45,0,0,1,4.45-4.45A1,1,0,0,0,59.25,22.3Z"></path>
  <path class="cls-1" d="M4,23.32a4.45,4.45,0,0,1,4.45,4.45,1,1,0,0,0,2,0h0A6.51,6.51,0,0,0,4,21.28a1,1,0,0,0,0,2Z"></path>
  <path class="cls-1" d="M61.2,27.76a1,1,0,0,0-1,1v1h-1a1,1,0,0,0,0,2h2a1,1,0,0,0,1-1v-2A1,1,0,0,0,61.2,27.76Z"></path>
  <path class="cls-1" d="M21.73,29.76a1,1,0,0,0,0,2h3.75a1,1,0,0,0,0-2Z"></path>
  <path class="cls-1" d="M51.71,29.76a1,1,0,0,0,0,2h3.74a1,1,0,0,0,0-2Z"></path>
  <path class="cls-1" d="M48,29.76H44.21a1,1,0,0,0,0,2H48a1,1,0,0,0,0-2Z"></path>
  <path class="cls-1" d="M36.72,29.76a1,1,0,0,0,0,2h3.74a1,1,0,0,0,0-2Z"></path>
  <path class="cls-1" d="M29.23,31.76H33a1,1,0,0,0,0-2H29.23a1,1,0,0,0,0,2Z"></path>
  <path class="cls-1" d="M14.24,31.76H18a1,1,0,0,0,0-2H14.24a1,1,0,1,0,0,2Z"></path>
  <path class="cls-1" d="M6.75,31.76h3.74a1,1,0,0,0,0-2H6.75a1,1,0,0,0,0,2Z"></path>
  <path class="cls-1" d="M1,31.76H3a1,1,0,1,0,0-2H2v-1a1,1,0,0,0-2,0v2A1,1,0,0,0,1,31.76Z"></path>
  <path class="cls-1" d="M1,11.36a1,1,0,0,0,1-1V6.68a1,1,0,0,0-2,0v3.68A1,1,0,0,0,1,11.36Z"></path>
  <path class="cls-1" d="M1,18.72a1,1,0,0,0,1-1V14a1,1,0,0,0-2,0v3.68A1,1,0,0,0,1,18.72Z"></path>
  <path class="cls-1" d="M1,26.08a1,1,0,0,0,1-1V21.4a1,1,0,0,0-2,0v3.68A1,1,0,0,0,1,26.08Z"></path>
  <path class="cls-1" d="M1,4A1,1,0,0,0,2,3V2H3A1,1,0,0,0,3,0H1A1,1,0,0,0,0,1V3A1,1,0,0,0,1,4Z"></path>
  <path class="cls-1" d="M51.7,2h3.75a1,1,0,0,0,0-2H51.7a1,1,0,0,0,0,2Z"></path>
  <path class="cls-1" d="M44.21,2H48a1,1,0,0,0,0-2H44.21a1,1,0,0,0,0,2Z"></path>
  <path class="cls-1" d="M36.72,2h3.74a1,1,0,0,0,0-2H36.72a1,1,0,0,0,0,2Z"></path>
  <path class="cls-1" d="M6.75,2h3.74a1,1,0,0,0,0-2H6.75a1,1,0,0,0,0,2Z"></path>
  <path class="cls-1" d="M14.24,2H18a1,1,0,0,0,0-2H14.24a1,1,0,0,0,0,2Z"></path>
  <path class="cls-1" d="M29.23,2H33a1,1,0,0,0,0-2H29.23a1,1,0,0,0,0,2Z"></path>
  <path class="cls-1" d="M21.73,2h3.75a1,1,0,0,0,0-2H21.73a1,1,0,0,0,0,2Z"></path>
  <path class="cls-1" d="M61.2,0h-2a1,1,0,0,0,0,2h1V3a1,1,0,0,0,2,0V1A1,1,0,0,0,61.2,0Z"></path>
  <path class="cls-1" d="M61.2,5.68a1,1,0,0,0-1,1v3.68a1,1,0,0,0,2,0V6.68A1,1,0,0,0,61.2,5.68Z"></path>
  <path class="cls-1" d="M61.2,20.4a1,1,0,0,0-1,1v3.68a1,1,0,0,0,2,0V21.4A1,1,0,0,0,61.2,20.4Z"></path>
  <path class="cls-1" d="M61.2,13a1,1,0,0,0-1,1v3.68a1,1,0,0,0,2,0V14A1,1,0,0,0,61.2,13Z"></path>
  <path class="cls-1" d="M36.06,28a1,1,0,0,0,1-1V25.83a9.69,9.69,0,0,0,5.16-8.55V14.47a9.7,9.7,0,0,0-5.16-8.56V4.74a1,1,0,0,0-2,0V27A1,1,0,0,0,36.06,28Zm4.12-13.54v2.81a7.68,7.68,0,0,1-3.12,6.17V8.31A7.66,7.66,0,0,1,40.18,14.47Z"></path>
</svg>
