<svg xmlns="http://www.w3.org/2000/svg" xmlns:xlink="http://www.w3.org/1999/xlink" width="500" zoomAndPan="magnify" viewBox="0 0 375 374.999991" height="500" preserveAspectRatio="xMidYMid meet" version="1.0"><defs><g/><radialGradient gradientTransform="matrix(1, 0, 0, 1, 0.0000045, 0)" gradientUnits="userSpaceOnUse" r="530.330095" cx="0" id="99cade7654" cy="0" fx="0" fy="0"><stop stop-opacity="1" stop-color="rgb(5.085754%, 30.895996%, 57.809448%)" offset="0"/><stop stop-opacity="1" stop-color="rgb(5.064392%, 30.741882%, 57.524109%)" offset="0.0078125"/><stop stop-opacity="1" stop-color="rgb(5.050659%, 30.639648%, 57.3349%)" offset="0.0117188"/><stop stop-opacity="1" stop-color="rgb(5.036926%, 30.535889%, 57.144165%)" offset="0.015625"/><stop stop-opacity="1" stop-color="rgb(5.023193%, 30.433655%, 56.954956%)" offset="0.0195312"/><stop stop-opacity="1" stop-color="rgb(5.00946%, 30.331421%, 56.764221%)" offset="0.0234375"/><stop stop-opacity="1" stop-color="rgb(4.995728%, 30.227661%, 56.575012%)" offset="0.0273438"/><stop stop-opacity="1" stop-color="rgb(4.981995%, 30.125427%, 56.385803%)" offset="0.03125"/><stop stop-opacity="1" stop-color="rgb(4.968262%, 30.023193%, 56.195068%)" offset="0.0351562"/><stop stop-opacity="1" stop-color="rgb(4.954529%, 29.919434%, 56.005859%)" offset="0.0390625"/><stop stop-opacity="1" stop-color="rgb(4.940796%, 29.8172%, 55.815125%)" offset="0.0429688"/><stop stop-opacity="1" stop-color="rgb(4.927063%, 29.714966%, 55.625916%)" offset="0.046875"/><stop stop-opacity="1" stop-color="rgb(4.91333%, 29.611206%, 55.436707%)" offset="0.0507812"/><stop stop-opacity="1" stop-color="rgb(4.899597%, 29.508972%, 55.245972%)" offset="0.0546875"/><stop stop-opacity="1" stop-color="rgb(4.885864%, 29.406738%, 55.056763%)" offset="0.0585938"/><stop stop-opacity="1" stop-color="rgb(4.873657%, 29.302979%, 54.866028%)" offset="0.0625"/><stop stop-opacity="1" stop-color="rgb(4.859924%, 29.200745%, 54.676819%)" offset="0.0664062"/><stop stop-opacity="1" stop-color="rgb(4.846191%, 29.098511%, 54.486084%)" offset="0.0703125"/><stop stop-opacity="1" stop-color="rgb(4.832458%, 28.994751%, 54.296875%)" offset="0.0742188"/><stop stop-opacity="1" stop-color="rgb(4.818726%, 28.892517%, 54.107666%)" offset="0.078125"/><stop stop-opacity="1" stop-color="rgb(4.804993%, 28.790283%, 53.916931%)" offset="0.0820312"/><stop stop-opacity="1" stop-color="rgb(4.79126%, 28.686523%, 53.727722%)" offset="0.0859375"/><stop stop-opacity="1" stop-color="rgb(4.777527%, 28.58429%, 53.536987%)" offset="0.0898438"/><stop stop-opacity="1" stop-color="rgb(4.763794%, 28.482056%, 53.347778%)" offset="0.09375"/><stop stop-opacity="1" stop-color="rgb(4.750061%, 28.378296%, 53.158569%)" offset="0.0976562"/><stop stop-opacity="1" stop-color="rgb(4.736328%, 28.276062%, 52.967834%)" offset="0.101562"/><stop stop-opacity="1" stop-color="rgb(4.722595%, 28.173828%, 52.778625%)" offset="0.105469"/><stop stop-opacity="1" stop-color="rgb(4.708862%, 28.070068%, 52.587891%)" offset="0.109375"/><stop stop-opacity="1" stop-color="rgb(4.695129%, 27.967834%, 52.398682%)" offset="0.113281"/><stop stop-opacity="1" stop-color="rgb(4.681396%, 27.865601%, 52.207947%)" offset="0.117188"/><stop stop-opacity="1" stop-color="rgb(4.667664%, 27.761841%, 52.018738%)" offset="0.121094"/><stop stop-opacity="1" stop-color="rgb(4.653931%, 27.659607%, 51.829529%)" offset="0.125"/><stop stop-opacity="1" stop-color="rgb(4.640198%, 27.557373%, 51.638794%)" offset="0.128906"/><stop stop-opacity="1" stop-color="rgb(4.626465%, 27.455139%, 51.449585%)" offset="0.132812"/><stop stop-opacity="1" stop-color="rgb(4.612732%, 27.351379%, 51.25885%)" offset="0.136719"/><stop stop-opacity="1" stop-color="rgb(4.598999%, 27.249146%, 51.069641%)" offset="0.140625"/><stop stop-opacity="1" stop-color="rgb(4.585266%, 27.146912%, 50.880432%)" offset="0.144531"/><stop stop-opacity="1" stop-color="rgb(4.571533%, 27.043152%, 50.689697%)" offset="0.148438"/><stop stop-opacity="1" stop-color="rgb(4.5578%, 26.940918%, 50.500488%)" offset="0.152344"/><stop stop-opacity="1" stop-color="rgb(4.544067%, 26.838684%, 50.309753%)" offset="0.15625"/><stop stop-opacity="1" stop-color="rgb(4.53186%, 26.734924%, 50.120544%)" offset="0.160156"/><stop stop-opacity="1" stop-color="rgb(4.518127%, 26.63269%, 49.92981%)" offset="0.164062"/><stop stop-opacity="1" stop-color="rgb(4.504395%, 26.530457%, 49.740601%)" offset="0.167969"/><stop stop-opacity="1" stop-color="rgb(4.490662%, 26.426697%, 49.551392%)" offset="0.171875"/><stop stop-opacity="1" stop-color="rgb(4.476929%, 26.324463%, 49.360657%)" offset="0.175781"/><stop stop-opacity="1" stop-color="rgb(4.463196%, 26.222229%, 49.171448%)" offset="0.179688"/><stop stop-opacity="1" stop-color="rgb(4.449463%, 26.118469%, 48.980713%)" offset="0.183594"/><stop stop-opacity="1" stop-color="rgb(4.43573%, 26.016235%, 48.791504%)" offset="0.1875"/><stop stop-opacity="1" stop-color="rgb(4.421997%, 25.914001%, 48.602295%)" offset="0.191406"/><stop stop-opacity="1" stop-color="rgb(4.408264%, 25.810242%, 48.41156%)" offset="0.195312"/><stop stop-opacity="1" stop-color="rgb(4.394531%, 25.708008%, 48.222351%)" offset="0.199219"/><stop stop-opacity="1" stop-color="rgb(4.380798%, 25.605774%, 48.031616%)" offset="0.203125"/><stop stop-opacity="1" stop-color="rgb(4.367065%, 25.502014%, 47.842407%)" offset="0.207031"/><stop stop-opacity="1" stop-color="rgb(4.353333%, 25.39978%, 47.653198%)" offset="0.210938"/><stop stop-opacity="1" stop-color="rgb(4.3396%, 25.297546%, 47.462463%)" offset="0.214844"/><stop stop-opacity="1" stop-color="rgb(4.325867%, 25.193787%, 47.273254%)" offset="0.21875"/><stop stop-opacity="1" stop-color="rgb(4.312134%, 25.091553%, 47.08252%)" offset="0.222656"/><stop stop-opacity="1" stop-color="rgb(4.298401%, 24.989319%, 46.893311%)" offset="0.226562"/><stop stop-opacity="1" stop-color="rgb(4.284668%, 24.885559%, 46.702576%)" offset="0.230469"/><stop stop-opacity="1" stop-color="rgb(4.270935%, 24.783325%, 46.513367%)" offset="0.234375"/><stop stop-opacity="1" stop-color="rgb(4.257202%, 24.681091%, 46.324158%)" offset="0.238281"/><stop stop-opacity="1" stop-color="rgb(4.243469%, 24.577332%, 46.133423%)" offset="0.242188"/><stop stop-opacity="1" stop-color="rgb(4.229736%, 24.475098%, 45.944214%)" offset="0.246094"/><stop stop-opacity="1" stop-color="rgb(4.216003%, 24.372864%, 45.753479%)" offset="0.25"/><stop stop-opacity="1" stop-color="rgb(4.196167%, 24.21875%, 45.469666%)" offset="0.253906"/><stop stop-opacity="1" stop-color="rgb(4.170227%, 24.012756%, 45.089722%)" offset="0.261719"/><stop stop-opacity="1" stop-color="rgb(4.142761%, 23.806763%, 44.709778%)" offset="0.269531"/><stop stop-opacity="1" stop-color="rgb(4.115295%, 23.602295%, 44.329834%)" offset="0.277344"/><stop stop-opacity="1" stop-color="rgb(4.08783%, 23.396301%, 43.94989%)" offset="0.285156"/><stop stop-opacity="1" stop-color="rgb(4.060364%, 23.190308%, 43.569946%)" offset="0.292969"/><stop stop-opacity="1" stop-color="rgb(4.032898%, 22.98584%, 43.191528%)" offset="0.300781"/><stop stop-opacity="1" stop-color="rgb(4.005432%, 22.779846%, 42.811584%)" offset="0.308594"/><stop stop-opacity="1" stop-color="rgb(3.977966%, 22.573853%, 42.431641%)" offset="0.316406"/><stop stop-opacity="1" stop-color="rgb(3.9505%, 22.369385%, 42.051697%)" offset="0.324219"/><stop stop-opacity="1" stop-color="rgb(3.923035%, 22.163391%, 41.671753%)" offset="0.332031"/><stop stop-opacity="1" stop-color="rgb(3.895569%, 21.957397%, 41.291809%)" offset="0.339844"/><stop stop-opacity="1" stop-color="rgb(3.868103%, 21.75293%, 40.913391%)" offset="0.347656"/><stop stop-opacity="1" stop-color="rgb(3.840637%, 21.546936%, 40.533447%)" offset="0.355469"/><stop stop-opacity="1" stop-color="rgb(3.814697%, 21.342468%, 40.153503%)" offset="0.363281"/><stop stop-opacity="1" stop-color="rgb(3.787231%, 21.136475%, 39.77356%)" offset="0.371094"/><stop stop-opacity="1" stop-color="rgb(3.759766%, 20.930481%, 39.393616%)" offset="0.378906"/><stop stop-opacity="1" stop-color="rgb(3.7323%, 20.726013%, 39.013672%)" offset="0.386719"/><stop stop-opacity="1" stop-color="rgb(3.704834%, 20.52002%, 38.635254%)" offset="0.394531"/><stop stop-opacity="1" stop-color="rgb(3.677368%, 20.314026%, 38.25531%)" offset="0.402344"/><stop stop-opacity="1" stop-color="rgb(3.649902%, 20.109558%, 37.875366%)" offset="0.410156"/><stop stop-opacity="1" stop-color="rgb(3.622437%, 19.903564%, 37.495422%)" offset="0.417969"/><stop stop-opacity="1" stop-color="rgb(3.594971%, 19.697571%, 37.115479%)" offset="0.425781"/><stop stop-opacity="1" stop-color="rgb(3.567505%, 19.493103%, 36.735535%)" offset="0.433594"/><stop stop-opacity="1" stop-color="rgb(3.540039%, 19.287109%, 36.357117%)" offset="0.441406"/><stop stop-opacity="1" stop-color="rgb(3.512573%, 19.081116%, 35.977173%)" offset="0.449219"/><stop stop-opacity="1" stop-color="rgb(3.486633%, 18.876648%, 35.597229%)" offset="0.457031"/><stop stop-opacity="1" stop-color="rgb(3.459167%, 18.670654%, 35.217285%)" offset="0.464844"/><stop stop-opacity="1" stop-color="rgb(3.431702%, 18.464661%, 34.837341%)" offset="0.472656"/><stop stop-opacity="1" stop-color="rgb(3.404236%, 18.260193%, 34.457397%)" offset="0.480469"/><stop stop-opacity="1" stop-color="rgb(3.37677%, 18.054199%, 34.078979%)" offset="0.488281"/><stop stop-opacity="1" stop-color="rgb(3.349304%, 17.848206%, 33.699036%)" offset="0.496094"/><stop stop-opacity="1" stop-color="rgb(3.327942%, 17.694092%, 33.413696%)" offset="0.503906"/><stop stop-opacity="1" stop-color="rgb(3.314209%, 17.591858%, 33.224487%)" offset="0.507812"/><stop stop-opacity="1" stop-color="rgb(3.300476%, 17.489624%, 33.033752%)" offset="0.511719"/><stop stop-opacity="1" stop-color="rgb(3.286743%, 17.385864%, 32.844543%)" offset="0.515625"/><stop stop-opacity="1" stop-color="rgb(3.27301%, 17.28363%, 32.655334%)" offset="0.519531"/><stop stop-opacity="1" stop-color="rgb(3.259277%, 17.181396%, 32.4646%)" offset="0.523438"/><stop stop-opacity="1" stop-color="rgb(3.245544%, 17.077637%, 32.275391%)" offset="0.527344"/><stop stop-opacity="1" stop-color="rgb(3.231812%, 16.975403%, 32.084656%)" offset="0.53125"/><stop stop-opacity="1" stop-color="rgb(3.218079%, 16.873169%, 31.895447%)" offset="0.535156"/><stop stop-opacity="1" stop-color="rgb(3.204346%, 16.769409%, 31.706238%)" offset="0.539062"/><stop stop-opacity="1" stop-color="rgb(3.190613%, 16.667175%, 31.515503%)" offset="0.542969"/><stop stop-opacity="1" stop-color="rgb(3.17688%, 16.564941%, 31.326294%)" offset="0.546875"/><stop stop-opacity="1" stop-color="rgb(3.164673%, 16.461182%, 31.135559%)" offset="0.550781"/><stop stop-opacity="1" stop-color="rgb(3.15094%, 16.358948%, 30.94635%)" offset="0.554688"/><stop stop-opacity="1" stop-color="rgb(3.137207%, 16.256714%, 30.755615%)" offset="0.558594"/><stop stop-opacity="1" stop-color="rgb(3.123474%, 16.152954%, 30.566406%)" offset="0.5625"/><stop stop-opacity="1" stop-color="rgb(3.109741%, 16.05072%, 30.377197%)" offset="0.566406"/><stop stop-opacity="1" stop-color="rgb(3.096008%, 15.948486%, 30.186462%)" offset="0.570312"/><stop stop-opacity="1" stop-color="rgb(3.082275%, 15.844727%, 29.997253%)" offset="0.574219"/><stop stop-opacity="1" stop-color="rgb(3.068542%, 15.742493%, 29.806519%)" offset="0.578125"/><stop stop-opacity="1" stop-color="rgb(3.05481%, 15.640259%, 29.61731%)" offset="0.582031"/><stop stop-opacity="1" stop-color="rgb(3.041077%, 15.536499%, 29.428101%)" offset="0.585938"/><stop stop-opacity="1" stop-color="rgb(3.027344%, 15.434265%, 29.237366%)" offset="0.589844"/><stop stop-opacity="1" stop-color="rgb(3.013611%, 15.332031%, 29.048157%)" offset="0.59375"/><stop stop-opacity="1" stop-color="rgb(2.999878%, 15.228271%, 28.857422%)" offset="0.597656"/><stop stop-opacity="1" stop-color="rgb(2.986145%, 15.126038%, 28.668213%)" offset="0.601562"/><stop stop-opacity="1" stop-color="rgb(2.972412%, 15.023804%, 28.477478%)" offset="0.605469"/><stop stop-opacity="1" stop-color="rgb(2.958679%, 14.920044%, 28.288269%)" offset="0.609375"/><stop stop-opacity="1" stop-color="rgb(2.944946%, 14.81781%, 28.09906%)" offset="0.613281"/><stop stop-opacity="1" stop-color="rgb(2.931213%, 14.715576%, 27.908325%)" offset="0.617188"/><stop stop-opacity="1" stop-color="rgb(2.91748%, 14.613342%, 27.719116%)" offset="0.621094"/><stop stop-opacity="1" stop-color="rgb(2.903748%, 14.509583%, 27.528381%)" offset="0.625"/><stop stop-opacity="1" stop-color="rgb(2.883911%, 14.355469%, 27.244568%)" offset="0.628906"/><stop stop-opacity="1" stop-color="rgb(2.856445%, 14.151001%, 26.864624%)" offset="0.636719"/><stop stop-opacity="1" stop-color="rgb(2.828979%, 13.945007%, 26.48468%)" offset="0.644531"/><stop stop-opacity="1" stop-color="rgb(2.80304%, 13.739014%, 26.104736%)" offset="0.652344"/><stop stop-opacity="1" stop-color="rgb(2.775574%, 13.534546%, 25.724792%)" offset="0.660156"/><stop stop-opacity="1" stop-color="rgb(2.748108%, 13.328552%, 25.344849%)" offset="0.667969"/><stop stop-opacity="1" stop-color="rgb(2.720642%, 13.122559%, 24.966431%)" offset="0.675781"/><stop stop-opacity="1" stop-color="rgb(2.693176%, 12.918091%, 24.586487%)" offset="0.683594"/><stop stop-opacity="1" stop-color="rgb(2.66571%, 12.712097%, 24.206543%)" offset="0.691406"/><stop stop-opacity="1" stop-color="rgb(2.638245%, 12.506104%, 23.826599%)" offset="0.699219"/><stop stop-opacity="1" stop-color="rgb(2.610779%, 12.301636%, 23.446655%)" offset="0.707031"/><stop stop-opacity="1" stop-color="rgb(2.583313%, 12.095642%, 23.066711%)" offset="0.714844"/><stop stop-opacity="1" stop-color="rgb(2.555847%, 11.889648%, 22.688293%)" offset="0.722656"/><stop stop-opacity="1" stop-color="rgb(2.528381%, 11.685181%, 22.30835%)" offset="0.730469"/><stop stop-opacity="1" stop-color="rgb(2.500916%, 11.479187%, 21.928406%)" offset="0.738281"/><stop stop-opacity="1" stop-color="rgb(2.47345%, 11.273193%, 21.548462%)" offset="0.746094"/><stop stop-opacity="1" stop-color="rgb(2.453613%, 11.11908%, 21.264648%)" offset="0.753906"/><stop stop-opacity="1" stop-color="rgb(2.43988%, 11.016846%, 21.073914%)" offset="0.757812"/><stop stop-opacity="1" stop-color="rgb(2.426147%, 10.914612%, 20.884705%)" offset="0.761719"/><stop stop-opacity="1" stop-color="rgb(2.412415%, 10.810852%, 20.69397%)" offset="0.765625"/><stop stop-opacity="1" stop-color="rgb(2.398682%, 10.708618%, 20.504761%)" offset="0.769531"/><stop stop-opacity="1" stop-color="rgb(2.384949%, 10.606384%, 20.315552%)" offset="0.773438"/><stop stop-opacity="1" stop-color="rgb(2.371216%, 10.502625%, 20.124817%)" offset="0.777344"/><stop stop-opacity="1" stop-color="rgb(2.357483%, 10.400391%, 19.935608%)" offset="0.78125"/><stop stop-opacity="1" stop-color="rgb(2.34375%, 10.298157%, 19.744873%)" offset="0.785156"/><stop stop-opacity="1" stop-color="rgb(2.330017%, 10.194397%, 19.555664%)" offset="0.789062"/><stop stop-opacity="1" stop-color="rgb(2.316284%, 10.092163%, 19.366455%)" offset="0.792969"/><stop stop-opacity="1" stop-color="rgb(2.302551%, 9.989929%, 19.17572%)" offset="0.796875"/><stop stop-opacity="1" stop-color="rgb(2.288818%, 9.886169%, 18.986511%)" offset="0.800781"/><stop stop-opacity="1" stop-color="rgb(2.275085%, 9.783936%, 18.795776%)" offset="0.804688"/><stop stop-opacity="1" stop-color="rgb(2.261353%, 9.681702%, 18.606567%)" offset="0.808594"/><stop stop-opacity="1" stop-color="rgb(2.24762%, 9.577942%, 18.415833%)" offset="0.8125"/><stop stop-opacity="1" stop-color="rgb(2.227783%, 9.423828%, 18.132019%)" offset="0.816406"/><stop stop-opacity="1" stop-color="rgb(2.200317%, 9.21936%, 17.752075%)" offset="0.824219"/><stop stop-opacity="1" stop-color="rgb(2.172852%, 9.013367%, 17.372131%)" offset="0.832031"/><stop stop-opacity="1" stop-color="rgb(2.145386%, 8.807373%, 16.992188%)" offset="0.839844"/><stop stop-opacity="1" stop-color="rgb(2.119446%, 8.602905%, 16.612244%)" offset="0.847656"/><stop stop-opacity="1" stop-color="rgb(2.09198%, 8.396912%, 16.2323%)" offset="0.855469"/><stop stop-opacity="1" stop-color="rgb(2.064514%, 8.192444%, 15.853882%)" offset="0.863281"/><stop stop-opacity="1" stop-color="rgb(2.037048%, 7.98645%, 15.473938%)" offset="0.871094"/><stop stop-opacity="1" stop-color="rgb(2.015686%, 7.832336%, 15.188599%)" offset="0.878906"/><stop stop-opacity="1" stop-color="rgb(2.001953%, 7.730103%, 14.99939%)" offset="0.882812"/><stop stop-opacity="1" stop-color="rgb(1.98822%, 7.626343%, 14.810181%)" offset="0.886719"/><stop stop-opacity="1" stop-color="rgb(1.974487%, 7.524109%, 14.619446%)" offset="0.890625"/><stop stop-opacity="1" stop-color="rgb(1.960754%, 7.421875%, 14.430237%)" offset="0.894531"/><stop stop-opacity="1" stop-color="rgb(1.947021%, 7.318115%, 14.239502%)" offset="0.898438"/><stop stop-opacity="1" stop-color="rgb(1.933289%, 7.215881%, 14.050293%)" offset="0.902344"/><stop stop-opacity="1" stop-color="rgb(1.919556%, 7.113647%, 13.859558%)" offset="0.90625"/><stop stop-opacity="1" stop-color="rgb(1.899719%, 6.959534%, 13.575745%)" offset="0.910156"/><stop stop-opacity="1" stop-color="rgb(1.872253%, 6.75354%, 13.195801%)" offset="0.917969"/><stop stop-opacity="1" stop-color="rgb(1.844788%, 6.547546%, 12.815857%)" offset="0.925781"/><stop stop-opacity="1" stop-color="rgb(1.817322%, 6.343079%, 12.435913%)" offset="0.933594"/><stop stop-opacity="1" stop-color="rgb(1.797485%, 6.188965%, 12.1521%)" offset="0.941406"/><stop stop-opacity="1" stop-color="rgb(1.783752%, 6.085205%, 11.961365%)" offset="0.945312"/><stop stop-opacity="1" stop-color="rgb(1.77002%, 5.982971%, 11.772156%)" offset="0.949219"/><stop stop-opacity="1" stop-color="rgb(1.756287%, 5.880737%, 11.581421%)" offset="0.953125"/><stop stop-opacity="1" stop-color="rgb(1.73645%, 5.726624%, 11.297607%)" offset="0.957031"/><stop stop-opacity="1" stop-color="rgb(1.708984%, 5.52063%, 10.917664%)" offset="0.964844"/><stop stop-opacity="1" stop-color="rgb(1.687622%, 5.366516%, 10.632324%)" offset="0.972656"/><stop stop-opacity="1" stop-color="rgb(1.673889%, 5.264282%, 10.443115%)" offset="0.976562"/><stop stop-opacity="1" stop-color="rgb(1.654053%, 5.110168%, 10.157776%)" offset="0.980469"/><stop stop-opacity="1" stop-color="rgb(1.63269%, 4.956055%, 9.873962%)" offset="0.988281"/><stop stop-opacity="1" stop-color="rgb(1.612854%, 4.801941%, 9.588623%)" offset="0.992188"/><stop stop-opacity="1" stop-color="rgb(1.599121%, 4.699707%, 9.399414%)" offset="1"/></radialGradient></defs><rect x="-37.5" width="450" fill="#ffffff" y="-37.499999" height="449.999989" fill-opacity="1"/><rect x="-37.5" fill="url(#99cade7654)" width="450" y="-37.499999" height="449.999989"/><g fill="#e88f80" fill-opacity="1"><g transform="translate(148.862435, 210.481705)"><g><path d="M 47.78125 1.546875 C 40.3125 1.546875 33.660156 0.625 27.828125 -1.21875 C 22.003906 -3.0625 17.148438 -5.484375 13.265625 -8.484375 C 9.390625 -11.484375 6.414062 -14.773438 4.34375 -18.359375 L 16.078125 -32.671875 L 17.921875 -32.671875 C 21.160156 -27.847656 25.273438 -24.007812 30.265625 -21.15625 C 35.265625 -18.3125 41.101562 -16.890625 47.78125 -16.890625 C 53.488281 -16.890625 57.789062 -18.09375 60.6875 -20.5 C 63.59375 -22.90625 65.046875 -26.222656 65.046875 -30.453125 C 65.046875 -33.015625 64.578125 -35.15625 63.640625 -36.875 C 62.703125 -38.59375 61.148438 -40.066406 58.984375 -41.296875 C 56.828125 -42.523438 53.90625 -43.582031 50.21875 -44.46875 L 36.359375 -47.640625 C 26.671875 -49.847656 19.453125 -53.519531 14.703125 -58.65625 C 9.960938 -63.800781 7.59375 -70.476562 7.59375 -78.6875 C 7.59375 -84.78125 9.113281 -90.140625 12.15625 -94.765625 C 15.207031 -99.390625 19.644531 -102.976562 25.46875 -105.53125 C 31.300781 -108.082031 38.273438 -109.359375 46.390625 -109.359375 C 54.691406 -109.359375 61.804688 -108.265625 67.734375 -106.078125 C 73.660156 -103.890625 78.664062 -100.535156 82.75 -96.015625 L 72.203125 -81.5625 L 70.359375 -81.5625 C 67.304688 -84.757812 63.8125 -87.15625 59.875 -88.75 C 55.945312 -90.351562 51.453125 -91.15625 46.390625 -91.15625 C 40.535156 -91.15625 36.082031 -90.117188 33.03125 -88.046875 C 29.988281 -85.984375 28.46875 -83.132812 28.46875 -79.5 C 28.46875 -76.101562 29.535156 -73.394531 31.671875 -71.375 C 33.804688 -69.363281 37.503906 -67.796875 42.765625 -66.671875 L 56.9375 -63.71875 C 67.40625 -61.5 75 -57.75 79.71875 -52.46875 C 84.4375 -47.1875 86.796875 -40.289062 86.796875 -31.78125 C 86.796875 -25.050781 85.34375 -19.1875 82.4375 -14.1875 C 79.539062 -9.195312 75.164062 -5.328125 69.3125 -2.578125 C 63.46875 0.171875 56.289062 1.546875 47.78125 1.546875 Z M 47.78125 1.546875 "/></g></g></g><g fill="#e88f80" fill-opacity="1"><g transform="translate(241.480811, 210.481705)"><g><path d="M 86.4375 -107.8125 L 86.4375 -89.890625 L 55.3125 -89.890625 L 55.3125 0 L 34.078125 0 L 34.078125 -89.890625 L 2.953125 -89.890625 L 2.953125 -107.8125 Z M 86.4375 -107.8125 "/></g></g></g><g fill="#e88f80" fill-opacity="1"><g transform="translate(46.895122, 182.594236)"><g><path d="M 47.953125 1.578125 C 39.867188 1.578125 32.769531 -0.078125 26.65625 -3.390625 C 20.550781 -6.710938 15.816406 -11.578125 12.453125 -17.984375 C 9.085938 -24.390625 7.40625 -32.132812 7.40625 -41.21875 C 7.40625 -50.289062 9.085938 -58.039062 12.453125 -64.46875 C 15.816406 -70.90625 20.550781 -75.78125 26.65625 -79.09375 C 32.769531 -82.414062 39.867188 -84.078125 47.953125 -84.078125 C 56.023438 -84.078125 63.113281 -82.414062 69.21875 -79.09375 C 75.332031 -75.78125 80.082031 -70.90625 83.46875 -64.46875 C 86.863281 -58.039062 88.5625 -50.289062 88.5625 -41.21875 C 88.5625 -32.132812 86.863281 -24.390625 83.46875 -17.984375 C 80.082031 -11.578125 75.332031 -6.710938 69.21875 -3.390625 C 63.113281 -0.078125 56.023438 1.578125 47.953125 1.578125 Z M 47.953125 -16 C 60.765625 -16 67.171875 -24.40625 67.171875 -41.21875 C 67.171875 -49.9375 65.523438 -56.328125 62.234375 -60.390625 C 58.941406 -64.460938 54.179688 -66.5 47.953125 -66.5 C 35.128906 -66.5 28.71875 -58.070312 28.71875 -41.21875 C 28.71875 -24.40625 35.128906 -16 47.953125 -16 Z M 47.953125 -16 "/></g></g></g><path stroke-linecap="butt" transform="matrix(0.961109, 0, 0, 0.961109, 56.381684, 195.64528)" fill="none" stroke-linejoin="miter" d="M 0.00117417 8.001859 L 81.490706 8.001859 " stroke="#e88f80" stroke-width="16" stroke-opacity="1" stroke-miterlimit="4"/><g fill="#ff8d55" fill-opacity="0.4"><g transform="translate(84.471361, 282.363703)"><g><path d="M 36.515625 -43.535156 L 3.808594 -43.535156 L 3.808594 -35.425781 L 16.109375 -35.425781 L 16.109375 0 L 24.214844 0 L 24.214844 -35.425781 L 36.515625 -35.425781 Z M 36.515625 -43.535156 "/></g></g></g><g fill="#ff8d55" fill-opacity="0.4"><g transform="translate(124.792262, 282.363703)"><g><path d="M 29.496094 0 L 37.984375 0 L 25.195312 -43.425781 L 25.195312 -43.535156 L 16.652344 -43.535156 L 3.808594 0 L 12.351562 0 L 15.5625 -10.828125 L 26.285156 -10.828125 Z M 17.957031 -18.9375 L 20.949219 -29.058594 L 23.890625 -18.9375 Z M 17.957031 -18.9375 "/></g></g></g><g fill="#ff8d55" fill-opacity="0.4"><g transform="translate(166.582341, 282.363703)"><g><path d="M 39.179688 -43.535156 L 29.003906 -43.535156 L 21.550781 -30.636719 L 14.148438 -43.535156 L 3.808594 -43.535156 L 16.433594 -21.765625 L 3.808594 0.0546875 L 14.148438 0 L 21.550781 -12.84375 L 29.003906 0.0546875 L 39.179688 0.0546875 L 26.664062 -21.765625 Z M 39.179688 -43.535156 "/></g></g></g><g fill="#ff8d55" fill-opacity="0.4"><g transform="translate(209.569537, 282.363703)"><g><path d="M 29.058594 -35.480469 L 29.058594 -43.589844 L 3.808594 -43.589844 L 3.808594 0 L 29.058594 0 L 29.058594 -8.109375 L 11.972656 -8.109375 L 11.972656 -17.792969 L 22.148438 -17.792969 L 22.148438 -25.902344 L 11.972656 -25.902344 L 11.972656 -35.480469 Z M 29.058594 -35.480469 "/></g></g></g><g fill="#ff8d55" fill-opacity="0.4"><g transform="translate(242.435697, 282.363703)"><g><path d="M 21.875 0.542969 L 22.855469 0.542969 C 32.214844 0.488281 37.546875 -5.605469 37.929688 -11.644531 C 38.363281 -17.957031 33.574219 -25.03125 22.039062 -26.5 L 21.929688 -26.5 C 17.742188 -26.992188 13.386719 -29.058594 13.605469 -32.105469 C 13.769531 -34.285156 17.03125 -36.296875 22.964844 -36.023438 L 23.128906 -36.023438 C 26.394531 -36.023438 30.3125 -34.445312 32.324219 -32.976562 L 37.003906 -39.507812 C 33.902344 -41.738281 28.460938 -44.023438 23.238281 -44.023438 C 11.699219 -44.625 6.09375 -38.746094 5.605469 -32.761719 C 5.332031 -29.277344 6.800781 -25.847656 9.632812 -23.238281 C 12.40625 -20.679688 16.378906 -19.046875 21.058594 -18.558594 C 27.425781 -17.6875 30.09375 -14.746094 29.929688 -12.191406 C 29.765625 -9.851562 27.261719 -7.507812 22.746094 -7.507812 L 22.476562 -7.507812 C 22.421875 -7.507812 16.488281 -7.183594 12.84375 -10.175781 C 11.917969 -10.882812 11.15625 -11.753906 10.449219 -12.789062 L 3.808594 -8.273438 C 4.898438 -6.640625 6.257812 -5.167969 7.78125 -3.917969 C 12.734375 0.109375 19.265625 0.542969 21.875 0.542969 Z M 21.875 0.542969 "/></g></g></g><g fill="#e88f80" fill-opacity="1"><g transform="translate(87.646724, 281.144791)"><g><path d="M 36.515625 -43.535156 L 3.808594 -43.535156 L 3.808594 -35.425781 L 16.109375 -35.425781 L 16.109375 0 L 24.214844 0 L 24.214844 -35.425781 L 36.515625 -35.425781 Z M 36.515625 -43.535156 "/></g></g></g><g fill="#e88f80" fill-opacity="1"><g transform="translate(127.967625, 281.144791)"><g><path d="M 29.496094 0 L 37.984375 0 L 25.195312 -43.425781 L 25.195312 -43.535156 L 16.652344 -43.535156 L 3.808594 0 L 12.351562 0 L 15.5625 -10.828125 L 26.285156 -10.828125 Z M 17.957031 -18.9375 L 20.949219 -29.058594 L 23.890625 -18.9375 Z M 17.957031 -18.9375 "/></g></g></g><g fill="#e88f80" fill-opacity="1"><g transform="translate(169.757704, 281.144791)"><g><path d="M 39.179688 -43.535156 L 29.003906 -43.535156 L 21.550781 -30.636719 L 14.148438 -43.535156 L 3.808594 -43.535156 L 16.433594 -21.765625 L 3.808594 0.0546875 L 14.148438 0 L 21.550781 -12.84375 L 29.003906 0.0546875 L 39.179688 0.0546875 L 26.664062 -21.765625 Z M 39.179688 -43.535156 "/></g></g></g><g fill="#e88f80" fill-opacity="1"><g transform="translate(212.7449, 281.144791)"><g><path d="M 29.058594 -35.480469 L 29.058594 -43.589844 L 3.808594 -43.589844 L 3.808594 0 L 29.058594 0 L 29.058594 -8.109375 L 11.972656 -8.109375 L 11.972656 -17.792969 L 22.148438 -17.792969 L 22.148438 -25.902344 L 11.972656 -25.902344 L 11.972656 -35.480469 Z M 29.058594 -35.480469 "/></g></g></g><g fill="#e88f80" fill-opacity="1"><g transform="translate(245.61106, 281.144791)"><g><path d="M 21.875 0.542969 L 22.855469 0.542969 C 32.214844 0.488281 37.546875 -5.605469 37.929688 -11.644531 C 38.363281 -17.957031 33.574219 -25.03125 22.039062 -26.5 L 21.929688 -26.5 C 17.742188 -26.992188 13.386719 -29.058594 13.605469 -32.105469 C 13.769531 -34.285156 17.03125 -36.296875 22.964844 -36.023438 L 23.128906 -36.023438 C 26.394531 -36.023438 30.3125 -34.445312 32.324219 -32.976562 L 37.003906 -39.507812 C 33.902344 -41.738281 28.460938 -44.023438 23.238281 -44.023438 C 11.699219 -44.625 6.09375 -38.746094 5.605469 -32.761719 C 5.332031 -29.277344 6.800781 -25.847656 9.632812 -23.238281 C 12.40625 -20.679688 16.378906 -19.046875 21.058594 -18.558594 C 27.425781 -17.6875 30.09375 -14.746094 29.929688 -12.191406 C 29.765625 -9.851562 27.261719 -7.507812 22.746094 -7.507812 L 22.476562 -7.507812 C 22.421875 -7.507812 16.488281 -7.183594 12.84375 -10.175781 C 11.917969 -10.882812 11.15625 -11.753906 10.449219 -12.789062 L 3.808594 -8.273438 C 4.898438 -6.640625 6.257812 -5.167969 7.78125 -3.917969 C 12.734375 0.109375 19.265625 0.542969 21.875 0.542969 Z M 21.875 0.542969 "/></g></g></g></svg>