<svg xmlns="http://www.w3.org/2000/svg" xmlns:xlink="http://www.w3.org/1999/xlink" width="500" zoomAndPan="magnify" viewBox="50 20 375 375" height="500" preserveAspectRatio="xMidYMid meet" version="1.0"><defs><g/></defs>
<g fill="#fff" fill-opacity="1"><g transform="translate(152.628118, 253.545649)"><g>
<path d="M 43.125 1.390625 C 36.382812 1.390625 30.382812 0.5625 25.125 -1.09375 C 19.863281 -2.757812 15.476562 -4.945312 11.96875 -7.65625 C 8.46875 -10.363281 5.785156 -13.335938 3.921875 -16.578125 L 14.515625 -29.484375 L 16.171875 -29.484375 C 19.097656 -25.140625 22.8125 -21.675781 27.3125 -19.09375 C 31.820312 -16.519531 37.09375 -15.234375 43.125 -15.234375 C 48.269531 -15.234375 52.148438 -16.320312 54.765625 -18.5 C 57.390625 -20.675781 58.703125 -23.671875 58.703125 -27.484375 C 58.703125 -29.796875 58.28125 -31.726562 57.4375 -33.28125 C 56.59375 -34.832031 55.191406 -36.160156 53.234375 -37.265625 C 51.285156 -38.378906 48.648438 -39.335938 45.328125 -40.140625 L 32.8125 -43 C 24.070312 -44.988281 17.5625 -48.300781 13.28125 -52.9375 C 9 -57.582031 6.859375 -63.609375 6.859375 -71.015625 C 6.859375 -76.515625 8.234375 -81.347656 10.984375 -85.515625 C 13.734375 -89.691406 17.738281 -92.929688 23 -95.234375 C 28.257812 -97.546875 34.546875 -98.703125 41.859375 -98.703125 C 49.359375 -98.703125 55.78125 -97.710938 61.125 -95.734375 C 66.476562 -93.765625 70.992188 -90.738281 74.671875 -86.65625 L 65.15625 -73.609375 L 63.5 -73.609375 C 60.75 -76.492188 57.597656 -78.65625 54.046875 -80.09375 C 50.492188 -81.539062 46.429688 -82.265625 41.859375 -82.265625 C 36.578125 -82.265625 32.5625 -81.332031 29.8125 -79.46875 C 27.0625 -77.601562 25.6875 -75.03125 25.6875 -71.75 C 25.6875 -68.6875 26.648438 -66.242188 28.578125 -64.421875 C 30.515625 -62.609375 33.859375 -61.191406 38.609375 -60.171875 L 51.390625 -57.5 C 60.835938 -55.507812 67.691406 -52.128906 71.953125 -47.359375 C 76.210938 -42.585938 78.34375 -36.363281 78.34375 -28.6875 C 78.34375 -22.601562 77.03125 -17.3125 74.40625 -12.8125 C 71.789062 -8.3125 67.84375 -4.816406 62.5625 -2.328125 C 57.28125 0.148438 50.800781 1.390625 43.125 1.390625 Z M 43.125 1.390625 "/></g></g></g>
<g fill="#fff" fill-opacity="1"><g transform="translate(236.219751, 253.545649)"><g>
<path d="M 78 -97.3125 L 78 -81.140625 L 49.921875 -81.140625 L 49.921875 0 L 30.75 0 L 30.75 -81.140625 L 2.65625 -81.140625 L 2.65625 -97.3125 Z M 78 -97.3125 "/></g></g></g>
<g fill="#fff" fill-opacity="1"><g transform="translate(60.598711, 228.376135)"><g>
<path d="M 43.265625 1.421875 C 35.972656 1.421875 29.570312 -0.0703125 24.0625 -3.0625 C 18.550781 -6.0625 14.273438 -10.453125 11.234375 -16.234375 C 8.203125 -22.015625 6.6875 -29 6.6875 -37.1875 C 6.6875 -45.382812 8.203125 -52.382812 11.234375 -58.1875 C 14.273438 -63.988281 18.550781 -68.382812 24.0625 -71.375 C 29.570312 -74.375 35.972656 -75.875 43.265625 -75.875 C 50.554688 -75.875 56.957031 -74.375 62.46875 -71.375 C 67.988281 -68.382812 72.273438 -63.988281 75.328125 -58.1875 C 78.390625 -52.382812 79.921875 -45.382812 79.921875 -37.1875 C 79.921875 -29 78.390625 -22.015625 75.328125 -16.234375 C 72.273438 -10.453125 67.988281 -6.0625 62.46875 -3.0625 C 56.957031 -0.0703125 50.554688 1.421875 43.265625 1.421875 Z M 43.265625 -14.453125 C 54.835938 -14.453125 60.625 -22.03125 60.625 -37.1875 C 60.625 -45.070312 59.132812 -50.847656 56.15625 -54.515625 C 53.1875 -58.179688 48.890625 -60.015625 43.265625 -60.015625 C 31.703125 -60.015625 25.921875 -52.40625 25.921875 -37.1875 C 25.921875 -22.03125 31.703125 -14.453125 43.265625 -14.453125 Z M 43.265625 -14.453125 "/></g></g></g>
<path stroke-linecap="butt" transform="matrix(0.75, 0, 0, 0.75, 69.160694, 239.969677)" fill="none" stroke-linejoin="miter" d="M -0.000717478 9.498765 L 94.254497 9.498765 " stroke="#fff" stroke-width="19" stroke-opacity="1" stroke-miterlimit="4"/>
</svg>