<svg xmlns="http://www.w3.org/2000/svg" xmlns:xlink="http://www.w3.org/1999/xlink" width="1000" zoomAndPan="magnify" viewBox="0 0 750 749.999995" height="1000" preserveAspectRatio="xMidYMid meet" version="1.0"><defs><g/></defs><g fill="#000000" fill-opacity="1"><g transform="translate(286.147632, 499.110507)"><g><path d="M 109.890625 3.5625 C 92.710938 3.5625 77.421875 1.441406 64.015625 -2.796875 C 50.617188 -7.035156 39.453125 -12.601562 30.515625 -19.5 C 21.585938 -26.394531 14.75 -33.972656 10 -42.234375 L 36.96875 -75.125 L 41.21875 -75.125 C 48.675781 -64.050781 58.140625 -55.234375 69.609375 -48.671875 C 81.085938 -42.117188 94.515625 -38.84375 109.890625 -38.84375 C 123.003906 -38.84375 132.894531 -41.609375 139.5625 -47.140625 C 146.238281 -52.679688 149.578125 -60.316406 149.578125 -70.046875 C 149.578125 -75.921875 148.503906 -80.835938 146.359375 -84.796875 C 144.210938 -88.753906 140.648438 -92.144531 135.671875 -94.96875 C 130.703125 -97.800781 123.976562 -100.234375 115.5 -102.265625 L 83.609375 -109.5625 C 61.335938 -114.644531 44.742188 -123.09375 33.828125 -134.90625 C 22.921875 -146.726562 17.46875 -162.078125 17.46875 -180.953125 C 17.46875 -194.972656 20.972656 -207.296875 27.984375 -217.921875 C 34.992188 -228.554688 45.195312 -236.8125 58.59375 -242.6875 C 71.988281 -248.5625 88.015625 -251.5 106.671875 -251.5 C 125.773438 -251.5 142.140625 -248.984375 155.765625 -243.953125 C 169.390625 -238.921875 180.894531 -231.207031 190.28125 -220.8125 L 166.03125 -187.578125 L 161.796875 -187.578125 C 154.785156 -194.921875 146.753906 -200.429688 137.703125 -204.109375 C 128.660156 -207.785156 118.316406 -209.625 106.671875 -209.625 C 93.222656 -209.625 82.992188 -207.25 75.984375 -202.5 C 68.972656 -197.75 65.46875 -191.191406 65.46875 -182.828125 C 65.46875 -175.023438 67.925781 -168.804688 72.84375 -164.171875 C 77.757812 -159.535156 86.265625 -155.914062 98.359375 -153.3125 L 130.921875 -146.53125 C 155.003906 -141.4375 172.472656 -132.8125 183.328125 -120.65625 C 194.179688 -108.507812 199.609375 -92.65625 199.609375 -73.09375 C 199.609375 -57.601562 196.269531 -44.117188 189.59375 -32.640625 C 182.925781 -21.171875 172.863281 -12.269531 159.40625 -5.9375 C 145.957031 0.394531 129.453125 3.5625 109.890625 3.5625 Z M 109.890625 3.5625 "/></g></g></g><g fill="#000000" fill-opacity="1"><g transform="translate(499.136281, 499.110507)"><g><path d="M 198.765625 -247.953125 L 198.765625 -206.734375 L 127.203125 -206.734375 L 127.203125 0 L 78.359375 0 L 78.359375 -206.734375 L 6.78125 -206.734375 L 6.78125 -247.953125 Z M 198.765625 -247.953125 "/></g></g></g><g fill="#000000" fill-opacity="1"><g transform="translate(51.659801, 434.979449)"><g><path d="M 110.25 3.609375 C 91.675781 3.609375 75.363281 -0.203125 61.3125 -7.828125 C 47.269531 -15.453125 36.378906 -26.628906 28.640625 -41.359375 C 20.898438 -56.097656 17.03125 -73.90625 17.03125 -94.78125 C 17.03125 -115.644531 20.898438 -133.472656 28.640625 -148.265625 C 36.378906 -163.054688 47.269531 -174.265625 61.3125 -181.890625 C 75.363281 -189.515625 91.675781 -193.328125 110.25 -193.328125 C 128.832031 -193.328125 145.144531 -189.515625 159.1875 -181.890625 C 173.238281 -174.265625 184.160156 -163.054688 191.953125 -148.265625 C 199.753906 -133.472656 203.65625 -115.644531 203.65625 -94.78125 C 203.65625 -73.90625 199.753906 -56.097656 191.953125 -41.359375 C 184.160156 -26.628906 173.238281 -15.453125 159.1875 -7.828125 C 145.144531 -0.203125 128.832031 3.609375 110.25 3.609375 Z M 110.25 -36.8125 C 139.71875 -36.8125 154.453125 -56.132812 154.453125 -94.78125 C 154.453125 -114.84375 150.664062 -129.546875 143.09375 -138.890625 C 135.53125 -148.234375 124.582031 -152.90625 110.25 -152.90625 C 80.78125 -152.90625 66.046875 -133.53125 66.046875 -94.78125 C 66.046875 -56.132812 80.78125 -36.8125 110.25 -36.8125 Z M 110.25 -36.8125 "/></g></g></g><path stroke-linecap="butt" transform="matrix(1.58513, 0, 0, 1.58513, 73.47544, 464.444733)" fill="none" stroke-linejoin="miter" d="M 0.000708226 11.498832 L 113.627536 11.498832 " stroke="#000000" stroke-width="23" stroke-opacity="1" stroke-miterlimit="4"/></svg>