<svg xmlns="http://www.w3.org/2000/svg" xmlns:xlink="http://www.w3.org/1999/xlink" width="2000" zoomAndPan="magnify" viewBox="0 0 1500 1499.999933" height="2000" preserveAspectRatio="xMidYMid meet" version="1.0"><defs><g/></defs><g fill="#F1B9FF" fill-opacity="1"><g transform="translate(556.7574, 996.989735)"><g><path d="M 239.09375 7.75 C 201.707031 7.75 168.4375 3.140625 139.28125 -6.078125 C 110.132812 -15.304688 85.84375 -27.421875 66.40625 -42.421875 C 46.976562 -57.429688 32.097656 -73.914062 21.765625 -91.875 L 80.4375 -163.453125 L 89.65625 -163.453125 C 105.894531 -139.347656 126.5 -120.160156 151.46875 -105.890625 C 176.4375 -91.628906 205.644531 -84.5 239.09375 -84.5 C 267.632812 -84.5 289.160156 -90.523438 303.671875 -102.578125 C 318.179688 -114.628906 325.4375 -131.234375 325.4375 -152.390625 C 325.4375 -165.179688 323.097656 -175.878906 318.421875 -184.484375 C 313.753906 -193.097656 306.007812 -200.476562 295.1875 -206.625 C 284.363281 -212.78125 269.726562 -218.070312 251.28125 -222.5 L 181.90625 -238.359375 C 133.445312 -249.429688 97.347656 -267.816406 73.609375 -293.515625 C 49.867188 -319.222656 38 -352.617188 38 -393.703125 C 38 -424.203125 45.625 -451.015625 60.875 -474.140625 C 76.132812 -497.265625 98.335938 -515.21875 127.484375 -528 C 156.628906 -540.789062 191.5 -547.1875 232.09375 -547.1875 C 273.664062 -547.1875 309.269531 -541.710938 338.90625 -530.765625 C 368.550781 -519.816406 393.582031 -503.03125 414 -480.40625 L 361.234375 -408.09375 L 352 -408.09375 C 336.75 -424.082031 319.285156 -436.070312 299.609375 -444.0625 C 279.929688 -452.0625 257.425781 -456.0625 232.09375 -456.0625 C 202.820312 -456.0625 180.554688 -450.894531 165.296875 -440.5625 C 150.046875 -430.226562 142.421875 -415.960938 142.421875 -397.765625 C 142.421875 -380.785156 147.769531 -367.253906 158.46875 -357.171875 C 169.175781 -347.085938 187.691406 -339.21875 214.015625 -333.5625 L 284.859375 -318.796875 C 337.253906 -307.722656 375.257812 -288.960938 398.875 -262.515625 C 422.488281 -236.078125 434.296875 -201.582031 434.296875 -159.03125 C 434.296875 -125.332031 427.035156 -96 412.515625 -71.03125 C 398.003906 -46.0625 376.113281 -26.6875 346.84375 -12.90625 C 317.570312 0.863281 281.65625 7.75 239.09375 7.75 Z M 239.09375 7.75 "/></g></g><g transform="translate(1020.197059, 996.989735)"><g><path d="M 432.4375 -539.4375 L 432.4375 -449.78125 L 276.734375 -449.78125 L 276.734375 0 L 170.46875 0 L 170.46875 -449.78125 L 14.765625 -449.78125 L 14.765625 -539.4375 Z M 432.4375 -539.4375 "/></g></g></g><g fill="#F1B9FF" fill-opacity="1"><g transform="translate(46.584576, 857.953581)"><g><path d="M 239.890625 7.859375 C 199.472656 7.859375 163.984375 -0.4375 133.421875 -17.03125 C 102.859375 -33.625 79.15625 -57.945312 62.3125 -90 C 45.46875 -122.0625 37.046875 -160.796875 37.046875 -206.203125 C 37.046875 -251.609375 45.46875 -290.40625 62.3125 -322.59375 C 79.15625 -354.78125 102.859375 -379.164062 133.421875 -395.75 C 163.984375 -412.34375 199.472656 -420.640625 239.890625 -420.640625 C 280.304688 -420.640625 315.796875 -412.34375 346.359375 -395.75 C 376.921875 -379.164062 400.679688 -354.78125 417.640625 -322.59375 C 434.609375 -290.40625 443.09375 -251.609375 443.09375 -206.203125 C 443.09375 -160.796875 434.609375 -122.0625 417.640625 -90 C 400.679688 -57.945312 376.921875 -33.625 346.359375 -17.03125 C 315.796875 -0.4375 280.304688 7.859375 239.890625 7.859375 Z M 239.890625 -80.09375 C 304.003906 -80.09375 336.0625 -122.128906 336.0625 -206.203125 C 336.0625 -249.867188 327.828125 -281.867188 311.359375 -302.203125 C 294.898438 -322.535156 271.078125 -332.703125 239.890625 -332.703125 C 175.765625 -332.703125 143.703125 -290.535156 143.703125 -206.203125 C 143.703125 -122.128906 175.765625 -80.09375 239.890625 -80.09375 Z M 239.890625 -80.09375 "/></g></g></g><path stroke-linecap="butt" transform="matrix(3.448618, 0, 0, 3.448618, 94.001413, 917.267949)" fill="none" stroke-linejoin="miter" d="M -0.000409803 11.499631 L 113.627544 11.499631 " stroke="#F1B9FF" stroke-width="23" stroke-opacity="1" stroke-miterlimit="4"/></svg>