<svg width="61" height="58" viewBox="0 0 61 58" fill="none" xmlns="http://www.w3.org/2000/svg">
<path d="M26.7109 32.6054C26.7109 29.777 26.7109 28.3627 27.5896 27.4841C28.4683 26.6054 29.8825 26.6054 32.7109 26.6054H39.5267C42.3552 26.6054 43.7694 26.6054 44.648 27.4841C45.5267 28.3627 45.5267 29.7769 45.5267 32.6054V48.1193C45.5267 50.118 45.5267 51.1173 45.2731 51.6942C44.6627 53.0831 43.1114 53.7976 41.6591 53.3589C41.0559 53.1766 40.2964 52.5271 38.7775 51.2281V51.2281C38.1084 50.6559 37.7738 50.3698 37.4246 50.201C36.5997 49.8022 35.6379 49.8022 34.8131 50.201C34.4638 50.3698 34.1293 50.6559 33.4602 51.2281V51.2281C31.9413 52.5271 31.1818 53.1766 30.5785 53.3589C29.1262 53.7976 27.575 53.0831 26.9645 51.6942C26.7109 51.1173 26.7109 50.118 26.7109 48.1193V32.6054Z" fill="RGB(47,46,46)"/>
<rect x="5" y="2" width="50.6579" height="40.5263" rx="12" fill="RGB(47,46,46)"/>
<path d="M26.7109 32.6054C26.7109 29.777 26.7109 28.3627 27.5896 27.4841C28.4683 26.6054 29.8825 26.6054 32.7109 26.6054H39.5267C42.3552 26.6054 43.7694 26.6054 44.648 27.4841C45.5267 28.3627 45.5267 29.7769 45.5267 32.6054V48.1193C45.5267 50.118 45.5267 51.1173 45.2731 51.6942C44.6627 53.0831 43.1114 53.7976 41.6591 53.3589C41.0559 53.1766 40.2964 52.5271 38.7775 51.2281V51.2281C38.1084 50.6559 37.7738 50.3698 37.4246 50.201C36.5997 49.8022 35.6379 49.8022 34.8131 50.201C34.4638 50.3698 34.1293 50.6559 33.4602 51.2281V51.2281C31.9413 52.5271 31.1818 53.1766 30.5785 53.3589C29.1262 53.7976 27.575 53.0831 26.9645 51.6942C26.7109 51.1173 26.7109 50.118 26.7109 48.1193V32.6054Z" fill="RGB(47,46,46)"/>
</svg>
