<svg width="61" height="60" viewBox="0 0 61 60" fill="none" xmlns="http://www.w3.org/2000/svg">
<path fill-rule="evenodd" clip-rule="evenodd" d="M18.3972 31.0934C14.6674 31.0934 11.1771 31.8041 7.93132 33.2306C4.36991 34.7959 2.02651 38.5982 2.00894 42.8363L2.00006 44.9345C1.9893 47.587 3.54343 49.9386 5.83355 50.7303C9.15292 51.878 13.3465 52.4423 18.3972 52.4423C18.4665 52.4423 18.5357 52.4421 18.6046 52.4419C18.6736 52.4421 18.7428 52.4423 18.8121 52.4423C23.8628 52.4423 28.0564 51.878 31.3758 50.7303C33.6659 49.9386 35.22 47.5871 35.2092 44.9346L35.2004 42.8364C35.1828 38.5982 32.8394 34.7959 29.278 33.2306C26.0322 31.8041 22.5419 31.0934 18.8121 31.0934C18.7428 31.0934 18.6737 31.0937 18.6046 31.0941C18.5356 31.0937 18.4665 31.0934 18.3972 31.0934Z" fill="#007AC5"/>
<path fill-rule="evenodd" clip-rule="evenodd" d="M37.004 28.7209C32.2086 28.7209 27.721 29.629 23.5479 31.4519C18.9689 33.4519 15.956 38.3103 15.9334 43.7258L15.9219 46.4068C15.9081 49.796 17.9063 52.8009 20.8507 53.8126C25.1185 55.279 30.5102 56 37.004 56C37.0931 56 37.182 55.9999 37.2707 55.9996C37.3594 55.9999 37.4483 56 37.5374 56C44.0312 56 49.4229 55.279 53.6907 53.8126C56.6351 52.8009 58.6333 49.7962 58.6195 46.4069L58.6081 43.7259C58.5855 38.3104 55.5725 33.4519 50.9936 31.4519C46.8205 29.629 42.3328 28.7209 37.5374 28.7209C37.4484 28.7209 37.3595 28.7213 37.2707 28.7219C37.1819 28.7213 37.093 28.7209 37.004 28.7209Z" fill="#7ACEFF"/>
<path fill-rule="evenodd" clip-rule="evenodd" d="M18.3972 31.0934C14.6674 31.0934 11.1771 31.8041 7.93132 33.2306C4.36991 34.7959 2.02651 38.5982 2.00894 42.8363L2.00006 44.9345C1.9893 47.587 3.54343 49.9386 5.83355 50.7303C9.15292 51.878 13.3465 52.4423 18.3972 52.4423C18.4665 52.4423 18.5357 52.4421 18.6046 52.4419C18.6736 52.4421 18.7428 52.4423 18.8121 52.4423C23.8628 52.4423 28.0564 51.878 31.3758 50.7303C33.6659 49.9386 35.22 47.5871 35.2092 44.9346L35.2004 42.8364C35.1828 38.5982 32.8394 34.7959 29.278 33.2306C26.0322 31.8041 22.5419 31.0934 18.8121 31.0934C18.7428 31.0934 18.6737 31.0937 18.6046 31.0941C18.5356 31.0937 18.4665 31.0934 18.3972 31.0934Z" fill="#005384"/>
<circle cx="36.6751" cy="15.0814" r="10.0814" fill="#7ACEFF"/>
<circle cx="16.8265" cy="19.8258" r="7.7093" fill="#005384"/>
</svg>
