<svg id="Layer_1" data-name="Layer 1" xmlns="http://www.w3.org/2000/svg" width="59.69" height="59.52" viewBox="0 0 59.69 59.52"><path id="Tracé_259" data-name="Tracé 259" fill="#14aa40" d="M58.73,18.27H53.66a1,1,0,0,0,0,1.91h4.11V55.71a1.9,1.9,0,1,1-3.8,0h0V27.14a1,1,0,0,0-.95-.95H51.17V1a1,1,0,0,0-1-.95H9.47a1,1,0,0,0-1,1v17.4H1a1,1,0,0,0-.95,1H0V58.56a1,1,0,0,0,1,1H55.88a3.82,3.82,0,0,0,3.81-3.81V19.23a1,1,0,0,0-1-1ZM10.42,1.91H49.25V26.19H32l-4.49-7.38a.94.94,0,0,0-.81-.46H10.42ZM1.9,57.61V20.25H26l4.49,7.38a.94.94,0,0,0,.81.46H52.05V55.7a3.84,3.84,0,0,0,.51,1.9Z"></path><path id="Tracé_260" data-name="Tracé 260" fill="#14aa40" d="M31.42,40H6.67a1,1,0,0,0-1,1h0V52.75a1,1,0,0,0,1,1H31.42a1,1,0,0,0,1-1V40.94A1,1,0,0,0,31.42,40Zm-1,11.82H7.62V41.89H30.47Z"></path><path id="Tracé_261" data-name="Tracé 261" fill="#14aa40" d="M23.64,4.7H15.23a.83.83,0,0,0-.83.82h0a.83.83,0,0,0,.83.83h3.2v8.39a.83.83,0,0,0,.83.83h0a.83.83,0,0,0,.83-.83V6.35h3.55a.83.83,0,0,0,.82-.83h0a.82.82,0,0,0-.82-.82Z"></path><path id="Tracé_262" data-name="Tracé 262" fill="#14aa40" d="M29.53,14.75a.82.82,0,0,0,.82.82h0a.83.83,0,0,0,.83-.82V12.63h1.25a.82.82,0,0,0,.82-.82h0a.83.83,0,0,0-.82-.83H31.18V5.53a.84.84,0,0,0-.54-.78.82.82,0,0,0-.92.25L24.5,11.28a.82.82,0,0,0,.63,1.35h4.4ZM26.89,11l2.64-3.17V11Z"></path>
<path id="Tracé_259" data-name="Tracé 259" fill="RGB(47,46,46)" d="M58.73,18.27H53.66a1,1,0,0,0,0,1.91h4.11V55.71a1.9,1.9,0,1,1-3.8,0h0V27.14a1,1,0,0,0-.95-.95H51.17V1a1,1,0,0,0-1-.95H9.47a1,1,0,0,0-1,1v17.4H1a1,1,0,0,0-.95,1H0V58.56a1,1,0,0,0,1,1H55.88a3.82,3.82,0,0,0,3.81-3.81V19.23a1,1,0,0,0-1-1ZM10.42,1.91H49.25V26.19H32l-4.49-7.38a.94.94,0,0,0-.81-.46H10.42ZM1.9,57.61V20.25H26l4.49,7.38a.94.94,0,0,0,.81.46H52.05V55.7a3.84,3.84,0,0,0,.51,1.9Z"></path>
<path id="Tracé_260" data-name="Tracé 260" fill="RGB(47,46,46)" d="M31.42,40H6.67a1,1,0,0,0-1,1h0V52.75a1,1,0,0,0,1,1H31.42a1,1,0,0,0,1-1V40.94A1,1,0,0,0,31.42,40Zm-1,11.82H7.62V41.89H30.47Z"></path>
<path id="Tracé_261" data-name="Tracé 261" fill="RGB(47,46,46)" d="M23.64,4.7H15.23a.83.83,0,0,0-.83.82h0a.83.83,0,0,0,.83.83h3.2v8.39a.83.83,0,0,0,.83.83h0a.83.83,0,0,0,.83-.83V6.35h3.55a.83.83,0,0,0,.82-.83h0a.82.82,0,0,0-.82-.82Z"></path>
<path id="Tracé_262" data-name="Tracé 262" fill="RGB(47,46,46)" d="M29.53,14.75a.82.82,0,0,0,.82.82h0a.83.83,0,0,0,.83-.82V12.63h1.25a.82.82,0,0,0,.82-.82h0a.83.83,0,0,0-.82-.83H31.18V5.53a.84.84,0,0,0-.54-.78.82.82,0,0,0-.92.25L24.5,11.28a.82.82,0,0,0,.63,1.35h4.4ZM26.89,11l2.64-3.17V11Z"></path>
</svg>