<svg width="50" height="15" viewBox="0 0 155 20" fill="none" xmlns="http://www.w3.org/2000/svg">
<path d="M10.7422 18.2689C10.1678 18.5125 9.50641 18.7388 8.75796 18.9477C8.02691 19.1566 7.28716 19.261 6.53871 19.261C5.84248 19.261 5.20716 19.1478 4.63277 18.9216C4.05838 18.6779 3.59712 18.2863 3.249 17.7467C2.90089 17.2071 2.72683 16.4935 2.72683 15.6058V8.45195H0.977539V5.29278H2.72683V0.932617H6.90423V5.29278H9.69788V8.45195H6.90423V14.1698C6.90423 14.6223 7.01737 14.953 7.24365 15.1619C7.46992 15.3534 7.75712 15.4491 8.10524 15.4491C8.41854 15.4491 8.74055 15.3969 9.07126 15.2925C9.40198 15.188 9.68917 15.0749 9.93285 14.953L10.7422 18.2689Z" fill="grey"/>
<path d="M18.7442 19.261C17.1776 19.261 15.8461 18.9303 14.7495 18.2689C13.6704 17.6074 12.8436 16.7371 12.2692 15.658C11.6948 14.5788 11.4076 13.4126 11.4076 12.1594C11.4076 10.8888 11.6948 9.71387 12.2692 8.63471C12.8436 7.55555 13.6791 6.68525 14.7756 6.02383C15.8722 5.36241 17.195 5.0317 18.7442 5.0317C20.2933 5.0317 21.6161 5.36241 22.7127 6.02383C23.8093 6.68525 24.6447 7.55555 25.2191 8.63471C25.7935 9.71387 26.0807 10.8888 26.0807 12.1594C26.0807 13.4126 25.7935 14.5788 25.2191 15.658C24.6447 16.7371 23.8093 17.6074 22.7127 18.2689C21.6161 18.9303 20.2933 19.261 18.7442 19.261ZM15.6894 12.1594C15.6894 13.2212 15.9766 14.0827 16.551 14.7442C17.1428 15.4056 17.8739 15.7363 18.7442 15.7363C19.597 15.7363 20.3107 15.4056 20.8851 14.7442C21.4769 14.0827 21.7728 13.2212 21.7728 12.1594C21.7728 11.0976 21.4769 10.236 20.8851 9.57463C20.3107 8.9132 19.597 8.58249 18.7442 8.58249C17.8739 8.58249 17.1428 8.9132 16.551 9.57463C15.9766 10.236 15.6894 11.0976 15.6894 12.1594Z" fill="grey"/>
<path d="M36.8467 8.86969C35.8372 8.88709 34.9234 9.05245 34.1053 9.36576C33.2872 9.67906 32.6954 10.149 32.3299 10.7756V18.9999H28.1525V5.29278H31.9905V8.06032C32.4605 7.13781 33.0697 6.41546 33.8181 5.89329C34.5666 5.37111 35.3498 5.10132 36.1679 5.08391C36.516 5.08391 36.7423 5.09262 36.8467 5.11002V8.86969Z" fill="grey"/>
<path d="M45.0314 19.261C43.4649 19.261 42.1334 18.9303 41.0368 18.2689C39.9576 17.6074 39.1308 16.7371 38.5564 15.658C37.9821 14.5788 37.6949 13.4126 37.6949 12.1594C37.6949 10.8888 37.9821 9.71387 38.5564 8.63471C39.1308 7.55555 39.9663 6.68525 41.0629 6.02383C42.1595 5.36241 43.4823 5.0317 45.0314 5.0317C46.5805 5.0317 47.9034 5.36241 49 6.02383C50.0965 6.68525 50.932 7.55555 51.5064 8.63471C52.0808 9.71387 52.368 10.8888 52.368 12.1594C52.368 13.4126 52.0808 14.5788 51.5064 15.658C50.932 16.7371 50.0965 17.6074 49 18.2689C47.9034 18.9303 46.5805 19.261 45.0314 19.261ZM41.9767 12.1594C41.9767 13.2212 42.2639 14.0827 42.8383 14.7442C43.4301 15.4056 44.1611 15.7363 45.0314 15.7363C45.8843 15.7363 46.598 15.4056 47.1723 14.7442C47.7641 14.0827 48.06 13.2212 48.06 12.1594C48.06 11.0976 47.7641 10.236 47.1723 9.57463C46.598 8.9132 45.8843 8.58249 45.0314 8.58249C44.1611 8.58249 43.4301 8.9132 42.8383 9.57463C42.2639 10.236 41.9767 11.0976 41.9767 12.1594Z" fill="grey"/>
<path d="M67.6508 18.9999H63.4734V11.2978C63.4734 10.3927 63.2994 9.73998 62.9512 9.33965C62.6205 8.92191 62.1767 8.71304 61.6197 8.71304C61.0453 8.71304 60.4622 8.93931 59.8704 9.39186C59.2786 9.84442 58.8609 10.4275 58.6172 11.1412V18.9999H54.4398V5.29278H58.1994V7.59036C58.7042 6.78969 59.4178 6.16308 60.3404 5.71053C61.2629 5.25797 62.3246 5.0317 63.5256 5.0317C64.4133 5.0317 65.127 5.19705 65.6665 5.52776C66.2235 5.84107 66.6413 6.25881 66.9198 6.78099C67.2157 7.28576 67.4071 7.84274 67.4942 8.45195C67.5986 9.06115 67.6508 9.65295 67.6508 10.2273V18.9999Z" fill="grey"/>
<path d="M79.2778 18.2689C78.7034 18.5125 78.042 18.7388 77.2935 18.9477C76.5625 19.1566 75.8227 19.261 75.0743 19.261C74.378 19.261 73.7427 19.1478 73.1683 18.9216C72.5939 18.6779 72.1327 18.2863 71.7846 17.7467C71.4365 17.2071 71.2624 16.4935 71.2624 15.6058V8.45195H69.5131V5.29278H71.2624V0.932617H75.4398V5.29278H78.2334V8.45195H75.4398V14.1698C75.4398 14.6223 75.5529 14.953 75.7792 15.1619C76.0055 15.3534 76.2927 15.4491 76.6408 15.4491C76.9541 15.4491 77.2761 15.3969 77.6068 15.2925C77.9375 15.188 78.2247 15.0749 78.4684 14.953L79.2778 18.2689Z" fill="grey"/>
<path d="M87.2797 19.261C85.7132 19.261 84.3816 18.9303 83.2851 18.2689C82.2059 17.6074 81.3791 16.7371 80.8047 15.658C80.2303 14.5788 79.9432 13.4126 79.9432 12.1594C79.9432 10.8888 80.2303 9.71387 80.8047 8.63471C81.3791 7.55555 82.2146 6.68525 83.3112 6.02383C84.4078 5.36241 85.7306 5.0317 87.2797 5.0317C88.8288 5.0317 90.1517 5.36241 91.2483 6.02383C92.3448 6.68525 93.1803 7.55555 93.7547 8.63471C94.3291 9.71387 94.6163 10.8888 94.6163 12.1594C94.6163 13.4126 94.3291 14.5788 93.7547 15.658C93.1803 16.7371 92.3448 17.6074 91.2483 18.2689C90.1517 18.9303 88.8288 19.261 87.2797 19.261ZM84.225 12.1594C84.225 13.2212 84.5122 14.0827 85.0866 14.7442C85.6784 15.4056 86.4094 15.7363 87.2797 15.7363C88.1326 15.7363 88.8463 15.4056 89.4206 14.7442C90.0124 14.0827 90.3083 13.2212 90.3083 12.1594C90.3083 11.0976 90.0124 10.236 89.4206 9.57463C88.8463 8.9132 88.1326 8.58249 87.2797 8.58249C86.4094 8.58249 85.6784 8.9132 85.0866 9.57463C84.5122 10.236 84.225 11.0976 84.225 12.1594Z" fill="grey"/>
<path d="M96.509 18.9999V14.7442H99.9292V18.9999H96.509Z" fill="grey"/>
<path d="M109.182 19.261C107.65 19.261 106.328 18.9303 105.214 18.2689C104.117 17.6074 103.273 16.7371 102.681 15.658C102.107 14.5788 101.819 13.4039 101.819 12.1333C101.819 10.8801 102.107 9.71387 102.681 8.63471C103.273 7.55555 104.117 6.68525 105.214 6.02383C106.31 5.36241 107.633 5.0317 109.182 5.0317C110.749 5.0317 112.072 5.37111 113.151 6.04994C114.247 6.71136 115.065 7.58165 115.605 8.66082L111.532 9.88793C110.992 9.01764 110.2 8.58249 109.156 8.58249C108.303 8.58249 107.581 8.9045 106.989 9.54852C106.397 10.1925 106.101 11.0541 106.101 12.1333C106.101 13.2125 106.397 14.0827 106.989 14.7442C107.581 15.4056 108.303 15.7363 109.156 15.7363C109.678 15.7363 110.157 15.6145 110.592 15.3708C111.027 15.1097 111.349 14.779 111.558 14.3786L115.631 15.6319C115.126 16.6936 114.317 17.5639 113.203 18.2427C112.106 18.9216 110.766 19.261 109.182 19.261Z" fill="grey"/>
<path d="M123.919 19.261C122.352 19.261 121.021 18.9303 119.924 18.2689C118.845 17.6074 118.018 16.7371 117.444 15.658C116.869 14.5788 116.582 13.4126 116.582 12.1594C116.582 10.8888 116.869 9.71387 117.444 8.63471C118.018 7.55555 118.854 6.68525 119.95 6.02383C121.047 5.36241 122.37 5.0317 123.919 5.0317C125.468 5.0317 126.791 5.36241 127.887 6.02383C128.984 6.68525 129.819 7.55555 130.394 8.63471C130.968 9.71387 131.255 10.8888 131.255 12.1594C131.255 13.4126 130.968 14.5788 130.394 15.658C129.819 16.7371 128.984 17.6074 127.887 18.2689C126.791 18.9303 125.468 19.261 123.919 19.261ZM120.864 12.1594C120.864 13.2212 121.151 14.0827 121.726 14.7442C122.317 15.4056 123.048 15.7363 123.919 15.7363C124.772 15.7363 125.485 15.4056 126.06 14.7442C126.651 14.0827 126.947 13.2212 126.947 12.1594C126.947 11.0976 126.651 10.236 126.06 9.57463C125.485 8.9132 124.772 8.58249 123.919 8.58249C123.048 8.58249 122.317 8.9132 121.726 9.57463C121.151 10.236 120.864 11.0976 120.864 12.1594Z" fill="grey"/>
<path d="M154.997 18.9999H150.82V11.2978C150.82 10.4101 150.655 9.75739 150.324 9.33965C149.993 8.92191 149.567 8.71304 149.045 8.71304C148.488 8.71304 147.939 8.93931 147.4 9.39186C146.86 9.84442 146.477 10.4275 146.251 11.1412V18.9999H142.074V11.2978C142.074 10.3927 141.908 9.73998 141.577 9.33965C141.247 8.92191 140.82 8.71304 140.298 8.71304C139.741 8.71304 139.193 8.93931 138.653 9.39186C138.131 9.84442 137.748 10.4275 137.504 11.1412V18.9999H133.327V5.29278H137.087V7.59036C137.592 6.77228 138.279 6.14567 139.149 5.71053C140.02 5.25797 141.02 5.0317 142.152 5.0317C143.283 5.0317 144.154 5.30149 144.763 5.84107C145.372 6.36325 145.764 6.98115 145.938 7.69479C146.46 6.85931 147.147 6.20659 148 5.73663C148.87 5.26668 149.845 5.0317 150.924 5.0317C151.795 5.0317 152.491 5.19705 153.013 5.52776C153.553 5.84107 153.962 6.25881 154.24 6.78099C154.536 7.30316 154.736 7.86885 154.841 8.47806C154.945 9.06986 154.997 9.65295 154.997 10.2273V18.9999Z" fill="grey"/>
</svg>
