<svg width="103" height="50" viewBox="0 0 103 50" fill="none" xmlns="http://www.w3.org/2000/svg">
<path d="M15.7269 20.0726H18.8755V38.4922H15.7269V20.0726ZM70.0935 13.5129L65.423 0.131194H61.1724V18.5508H64.1898V5.0116L68.939 18.5508H73.111V0.131194H70.0935V13.5129ZM50.7031 15.6645C54.0879 15.6645 56.843 12.8307 56.843 9.34099C56.843 5.85124 54.0879 3.01745 50.7031 3.01745C47.3183 3.01745 44.5632 5.85124 44.5632 9.34099C44.5632 12.8307 47.3183 15.6645 50.7031 15.6645ZM50.7031 0C55.8459 0 60.0441 4.1982 60.0441 9.34099C60.0441 14.4838 55.8459 18.682 50.7031 18.682C45.5603 18.682 41.3621 14.4838 41.3621 9.34099C41.3621 4.1982 45.5603 0 50.7031 0ZM4.26054 18.5508H7.40919V3.06993H11.24V0.131194H0.429688V3.06993H4.26054V18.5508ZM19.0854 15.6645C22.4702 15.6645 25.2253 12.8307 25.2253 9.34099C25.2253 5.85124 22.4702 3.01745 19.0854 3.01745C15.7006 3.01745 12.9456 5.85124 12.9456 9.34099C12.9456 12.8307 15.7006 15.6645 19.0854 15.6645ZM28.4264 9.34099C28.4264 14.4838 24.2282 18.682 19.0854 18.682C13.9426 18.682 9.74444 14.4838 9.74444 9.34099C9.74444 4.1982 13.9426 0 19.0854 0C24.2282 0 28.4264 4.1982 28.4264 9.34099ZM85.5744 0.131194H74.7378V3.06993H78.5686V18.5508H81.7173V3.06993H85.5481V0.131194H85.5744ZM93.3935 15.6645C96.7783 15.6645 99.5334 12.8307 99.5334 9.34099C99.5334 5.85124 96.7783 3.01745 93.3935 3.01745C90.0087 3.01745 87.2537 5.85124 87.2537 9.34099C87.2537 12.8307 90.0087 15.6645 93.3935 15.6645ZM93.3935 0C98.5363 0 102.735 4.1982 102.735 9.34099C102.735 14.4838 98.5363 18.682 93.3935 18.682C88.2507 18.682 84.0525 14.4838 84.0525 9.34099C84.0525 4.1982 88.2507 0 93.3935 0ZM20.8434 38.4922H23.9921V30.4894H30.7879V27.5507H23.9921V23.0114H30.9978V20.0726H20.8434V38.4922ZM35.1435 7.9241C36.7179 7.9241 37.6362 6.79583 37.6362 5.45766C37.6362 4.11948 36.7441 3.09617 35.1435 3.09617H32.7033V7.9241H35.1435ZM35.4059 10.8628H32.7033V18.5508H29.5547V0.131194H35.3272C38.2659 0.131194 40.8111 2.25653 40.8111 5.45766C40.8111 7.37308 39.8403 9.10484 38.2397 9.97072L43.0152 18.5508H39.3942L35.4059 10.8628ZM7.43543 20.0726H4.28678V38.4922H14.205V35.5535H7.43543V20.0726ZM32.7033 38.4922H43.8023V35.5535H35.852V30.5156H43.2513V27.5507H35.852V23.0114H43.8023V20.0726H32.7033V38.4922Z" fill="#585858"/>
</svg>
