<svg width="34" height="34" viewBox="0 0 34 34" fill="none" xmlns="http://www.w3.org/2000/svg">
<path opacity="0.4" fill-rule="evenodd" clip-rule="evenodd" d="M30.7228 11.1898C30.3973 11.3906 29.9768 11.7047 29.3429 12.1801L28.4762 12.8302C28.0778 13.1289 28.0403 13.1684 28.0179 13.1979C27.9804 13.2473 27.9525 13.3032 27.9354 13.3629C27.9252 13.3985 27.9162 13.4521 27.9162 13.9497L27.9162 13.9629L27.9162 13.976L27.9162 13.9891L27.9162 14.0023L27.9162 14.0154L27.9162 14.0286L27.9162 14.0417L27.9162 14.0549L27.9162 14.0681L27.9162 14.0812L27.9162 14.0944L27.9162 14.1076L27.9162 14.1207L27.9162 14.1339L27.9162 14.1471L27.9162 14.1603L27.9162 14.1735L27.9162 14.1867L27.9162 14.1999L27.9162 14.2131L27.9162 14.2263L27.9162 14.2395L27.9162 14.2528L27.9162 14.266L27.9162 14.2792L27.9162 14.2924L27.9162 14.3057L27.9162 14.3189L27.9162 14.3321L27.9162 14.3454L27.9162 14.3586L27.9162 14.3719L27.9162 14.3851L27.9162 14.3984L27.9162 14.4116L27.9162 14.4249L27.9162 14.4382L27.9162 14.4514L27.9162 14.4647L27.9162 14.478L27.9162 14.4912L27.9162 14.5045L27.9162 14.5178L27.9162 14.5311L27.9162 14.5443L27.9162 14.5576L27.9162 14.5709L27.9162 14.5842L27.9162 14.5975L27.9162 14.6108L27.9162 14.6241L27.9162 14.6374L27.9162 14.6507L27.9162 14.664L27.9162 14.6773L27.9162 14.6906L27.9162 14.7039L27.9162 14.7172L27.9162 14.7305L27.9162 14.7438L27.9162 14.7571L27.9162 14.7704L27.9162 14.7837L27.9162 14.797L27.9162 14.8103L27.9162 14.8237L27.9162 14.837L27.9162 14.8503L27.9162 14.8636L27.9162 14.8769L27.9162 14.8903L27.9162 14.9036L27.9162 14.9169L27.9162 14.9302L27.9162 14.9435L27.9162 14.9569L27.9162 14.9702L27.9162 14.9835L27.9162 14.9968L27.9162 15.0102L27.9162 15.0235L27.9162 15.0368L27.9162 15.0501L27.9162 15.0635L27.9162 15.0768L27.9162 15.0901L27.9162 15.1035L27.9162 15.1168L27.9162 15.1301L27.9162 15.1434L27.9162 15.1568L27.9162 15.1701L27.9162 15.1834L27.9162 15.1967L27.9162 15.2101L27.9162 15.2234L27.9162 15.2367L27.9162 15.25L27.9162 15.2634L27.9162 15.2767L27.9162 15.29L27.9162 15.3033L27.9162 15.3166L27.9162 15.33L27.9162 15.3433L27.9162 15.3566L27.9162 15.3699L27.9162 15.3832L27.9162 15.3965L27.9162 15.4098L27.9162 15.4231L27.9162 15.4365L27.9162 15.4498L27.9162 15.4631L27.9162 15.4764L27.9162 15.4897L27.9162 15.503L27.9162 15.5163L27.9162 15.5296L27.9162 15.5429L27.9162 15.5561L27.9162 15.5694L27.9162 15.5827L27.9162 15.596L27.9162 15.6093L27.9162 15.6226L27.9162 15.6359L27.9162 15.6491L27.9162 15.6624L27.9162 15.6757L27.9162 15.689L27.9162 15.7022L27.9162 15.7155L27.9162 15.7287L27.9162 15.742L27.9162 15.7553L27.9162 15.7685L27.9162 15.7818L27.9162 15.795L27.9162 15.8083L27.9162 15.8215L27.9162 15.8347L27.9162 15.848L27.9162 15.8612L27.9162 15.8744L27.9162 15.8877L27.9162 15.9009L27.9162 15.9141L27.9162 15.9273L27.9162 15.9405L27.9162 15.9538L27.9162 15.967L27.9162 15.9802L27.9162 15.9934L27.9162 16.0066L27.9162 16.0197L27.9162 16.0329L27.9162 16.0461L27.9162 16.0593L27.9162 16.0725L27.9162 16.0856L27.9162 16.0988L27.9162 16.112L27.9162 16.1251L27.9162 16.1383L27.9162 16.1514L27.9162 16.1646L27.9162 16.1777L27.9162 16.1908L27.9162 16.204L27.9162 16.2171L27.9162 16.2302L27.9162 16.2433L27.9162 16.2565L27.9162 16.2696L27.9162 16.2827L27.9162 16.2958L27.9162 16.3089L27.9162 16.3219L27.9162 16.335L27.9162 16.3481L27.9162 16.3612L27.9162 16.3742L27.9162 16.3873L27.9162 16.4003L27.9162 16.4134L27.9162 16.4264L27.9162 16.4395L27.9162 16.4525L27.9162 16.4655L27.9162 16.4786L27.9162 16.4916L27.9162 16.5046L27.9162 16.5176L27.9162 16.5306L27.9162 16.5436L27.9162 16.5566L27.9162 16.5695L27.9162 16.5825L27.9162 16.5955L27.9162 16.6084L27.9162 16.6214L27.9162 16.6343L27.9162 16.6473L27.9162 16.6602L27.9162 16.6731L27.9162 16.6861L27.9162 16.699L27.9162 16.7119L27.9162 16.7248L27.9162 16.7377L27.9162 16.7506L27.9162 16.7634L27.9162 16.7763L27.9162 16.7892L27.9162 16.802L27.9162 16.8149L27.9162 16.8277L27.9162 16.8406L27.9162 16.8534L27.9162 16.8662L27.9162 16.879L27.9162 16.8918L27.9162 16.9046L27.9162 16.9174L27.9162 16.9302L27.9162 16.943L27.9162 16.9558L27.9162 16.9685L27.9162 16.9813L27.9162 16.994L27.9162 17.0067L27.9162 17.0195L27.9162 17.0322L27.9162 17.0449L27.9162 17.0576L27.9162 17.0703L27.9162 17.083L27.9162 17.0957L27.9162 17.1083L27.9162 17.121L27.9162 17.1336L27.9162 17.1463L27.9162 17.1589L27.9162 17.1716L27.9162 17.1842L27.9162 17.1968L27.9162 17.2094L27.9162 17.222L27.9162 17.2345L27.9162 17.2471L27.9162 17.2597L27.9162 17.2722L27.9162 17.2848L27.9162 17.2973L27.9162 17.3098L27.9162 17.3224L27.9162 17.3349L27.9162 17.3474L27.9162 17.3599L27.9162 17.3723L27.9162 17.3848L27.9162 17.3973L27.9162 17.4097L27.9162 17.4221L27.9162 17.4346L27.9162 17.447L27.9162 17.4594L27.9162 17.4718L27.9162 17.4842L27.9162 17.4966L27.9162 17.5089L27.9162 17.5213L27.9162 17.5336L27.9162 17.546L27.9162 17.5583L27.9162 17.5706L27.9162 17.5829L27.9162 17.5952L27.9162 17.6075L27.9162 17.6198L27.9162 17.632L27.9162 17.6443L27.9162 17.6565L27.9162 17.6688L27.9162 17.681L27.9162 17.6932L27.9162 17.7054L27.9162 17.7176L27.9162 17.7298L27.9162 17.7419L27.9162 17.7541L27.9162 17.7662L27.9162 17.7783L27.9162 17.7905L27.9162 17.8026L27.9162 17.8147L27.9162 17.8267L27.9162 17.8388L27.9162 17.8509L27.9162 17.8629L27.9162 17.8749L27.9162 17.887L27.9162 17.899L27.9162 17.911L27.9162 17.923L27.9162 17.9349L27.9162 17.9469L27.9162 17.9588L27.9162 17.9708L27.9162 17.9827L27.9162 17.9946L27.9162 18.0065L27.9162 18.0184L27.9162 18.0303L27.9162 18.0421L27.9162 18.054L27.9162 18.0658L27.9162 18.0777L27.9162 18.0895L27.9162 18.1013L27.9162 18.113L27.9162 18.1248L27.9162 18.1366V18.1483L27.9162 18.1601L27.9162 18.1718L27.9162 18.1835L27.9162 18.1952L27.9162 18.2069L27.9162 18.2185L27.9162 18.2302L27.9162 18.2418L27.9162 18.2534L27.9162 18.265L27.9162 18.2766L27.9162 18.2882L27.9162 18.2998L27.9162 18.3113L27.9162 18.3229L27.9162 18.3344L27.9162 18.3459L27.9162 18.3574L27.9162 18.3689L27.9162 18.3804L27.9162 18.3918L27.9162 18.4033L27.9162 18.4147L27.9162 18.4261L27.9162 18.4375L27.9162 18.4489L27.9162 18.4603L27.9162 18.4716L27.9162 18.4829L27.9162 18.4943L27.9162 18.5056L27.9162 18.5169L27.9162 18.5282L27.9162 18.5394L27.9162 18.5507L27.9162 18.5619L27.9162 18.5731L27.9162 18.5843L27.9162 18.5955L27.9162 18.6067L27.9162 18.6178L27.9162 18.629L27.9162 18.6401L27.9162 18.6512L27.9162 18.6623L27.9162 18.6734L27.9162 18.6844L27.9162 18.6955L27.9162 18.7065L27.9162 18.7175L27.9162 18.7285L27.9162 18.7395L27.9162 18.7505L27.9162 18.7614L27.9162 18.7724L27.9162 18.7833L27.9162 18.7942L27.9162 18.8051L27.9162 18.816L27.9162 18.8268L27.9162 18.8376L27.9162 18.8485L27.9162 18.8593L27.9162 18.87L27.9162 18.8808L27.9162 18.8916L27.9162 18.9023L27.9162 18.913L27.9162 18.9237L27.9162 18.9344L27.9162 18.9451L27.9162 18.9557L27.9162 18.9664L27.9162 18.977L27.9162 18.9876L27.9162 18.9982L27.9162 19.0087L27.9162 19.0193L27.9162 19.0298L27.9162 19.0403L27.9162 19.0508L27.9162 19.0613L27.9162 19.0717L27.9162 19.0822L27.9162 19.0926L27.9162 19.103L27.9162 19.1134L27.9162 19.1237L27.9162 19.1341L27.9162 19.1444L27.9162 19.1547L27.9162 19.165L27.9162 19.1753L27.9162 19.1856L27.9162 19.1958L27.9162 19.206L27.9162 19.2162L27.9162 19.2264L27.9162 19.2366L27.9162 19.2467L27.9162 19.2569L27.9162 19.267L27.9162 19.2771L27.9162 19.2871L27.9162 19.2972L27.9162 19.3072L27.9162 19.3172L27.9162 19.3272L27.9162 19.3372L27.9162 19.3472L27.9162 19.3571L27.9162 19.367L27.9162 19.3769L27.9162 19.3868L27.9162 19.3966L27.9162 19.4065L27.9162 19.4163L27.9162 19.4261L27.9162 19.4359L27.9162 19.4456L27.9162 19.4554L27.9162 19.4651L27.9162 19.4748L27.9162 19.4845L27.9162 19.4941L27.9162 19.5038L27.9162 19.5134L27.9162 19.523L27.9162 19.5326L27.9162 19.5421L27.9162 19.5517L27.9162 19.5612L27.9162 19.5707L27.9162 19.5802L27.9162 19.5896L27.9162 19.5991L27.9162 19.6085L27.9162 19.6179L27.9162 19.6273L27.9162 19.6366L27.9162 19.6459L27.9162 19.6552L27.9162 19.6645L27.9162 19.6738L27.9162 19.6831L27.9162 19.6923L27.9162 19.7015L27.9162 19.7107L27.9162 19.7198L27.9162 19.729L27.9162 19.7381L27.9162 19.7472L27.9162 19.7563L27.9162 19.7653L27.9162 19.7743L27.9162 19.7834L27.9162 19.7923L27.9162 19.8013L27.9162 19.8103L27.9162 19.8192L27.9162 19.8281L27.9162 19.837L27.9162 19.8458L27.9162 19.8546L27.9162 19.8635L27.9162 19.8722L27.9162 19.881L27.9162 19.8898L27.9162 19.8985L27.9162 19.9072L27.9162 19.9159L27.9162 19.9245L27.9162 19.9331L27.9162 19.9417L27.9162 19.9503L27.9162 19.9589L27.9162 19.9674L27.9162 19.9759L27.9162 19.9844L27.9162 19.9929L27.9162 20.0014L27.9162 20.0098L27.9162 20.0182L27.9162 20.0266L27.9162 20.0349L27.9162 20.0432L27.9162 20.0515C27.9162 20.5484 27.9252 20.6018 27.9354 20.6375C27.9525 20.6971 27.9804 20.753 28.0179 20.8024C28.0403 20.832 28.0778 20.8714 28.4762 21.1702L29.3429 21.8202C29.9768 22.2956 30.3973 22.6097 30.7228 22.8105C30.9848 22.972 31.0891 22.9965 31.1028 22.9998C31.2461 22.9941 31.3801 22.9271 31.4706 22.8159C31.4762 22.8029 31.5192 22.7048 31.5471 22.3983C31.5819 22.0174 31.5829 21.4926 31.5829 20.7002L31.5829 13.3001C31.5829 12.5077 31.5819 11.9829 31.5471 11.602C31.5192 11.2955 31.4762 11.1973 31.4706 11.1844C31.3801 11.0732 31.2461 11.0062 31.1028 11.0005C31.0891 11.0038 30.9848 11.0283 30.7228 11.1898ZM29.6731 9.48746C30.0819 9.23539 30.5742 8.98899 31.1348 9.00064C31.8851 9.01623 32.5886 9.36801 33.0513 9.95885C33.3969 10.4003 33.4953 10.9421 33.5389 11.4203C33.5829 11.9032 33.5829 12.5206 33.5829 13.2521L33.5829 13.3001L33.5829 20.7002L33.5829 20.7482C33.5829 21.4797 33.5829 22.0971 33.5389 22.58C33.4953 23.0582 33.3969 23.6 33.0513 24.0414C32.5886 24.6323 31.8851 24.984 31.1348 24.9996C30.5743 25.0113 30.0819 24.7649 29.6731 24.5128C29.2604 24.2583 28.7665 23.8879 28.1813 23.449L28.1429 23.4202L27.2762 22.7702C27.2538 22.7534 27.2314 22.7366 27.2089 22.7198C26.9249 22.5076 26.6391 22.294 26.4246 22.0114C26.2373 21.7644 26.0974 21.4848 26.0123 21.1867C25.9149 20.8455 25.9155 20.4892 25.9161 20.1353C25.9162 20.1074 25.9162 20.0795 25.9162 20.0515L25.9162 20.0432L25.9162 20.0349L25.9162 20.0266L25.9162 20.0182L25.9162 20.0098L25.9162 20.0014L25.9162 19.9929L25.9162 19.9844L25.9162 19.9759L25.9162 19.9674L25.9162 19.9589L25.9162 19.9503L25.9162 19.9417L25.9162 19.9331L25.9162 19.9245L25.9162 19.9159L25.9162 19.9072L25.9162 19.8985L25.9162 19.8898L25.9162 19.881L25.9162 19.8722L25.9162 19.8635L25.9162 19.8546L25.9162 19.8458L25.9162 19.837L25.9162 19.8281L25.9162 19.8192L25.9162 19.8103L25.9162 19.8013L25.9162 19.7923L25.9162 19.7834L25.9162 19.7743L25.9162 19.7653L25.9162 19.7563L25.9162 19.7472L25.9162 19.7381L25.9162 19.729L25.9162 19.7198L25.9162 19.7107L25.9162 19.7015L25.9162 19.6923L25.9162 19.6831L25.9162 19.6738L25.9162 19.6645L25.9162 19.6552L25.9162 19.6459L25.9162 19.6366L25.9162 19.6273L25.9162 19.6179L25.9162 19.6085L25.9162 19.5991L25.9162 19.5896L25.9162 19.5802L25.9162 19.5707L25.9162 19.5612L25.9162 19.5517L25.9162 19.5421L25.9162 19.5326L25.9162 19.523L25.9162 19.5134L25.9162 19.5038L25.9162 19.4941L25.9162 19.4845L25.9162 19.4748L25.9162 19.4651L25.9162 19.4554L25.9162 19.4456L25.9162 19.4359L25.9162 19.4261L25.9162 19.4163L25.9162 19.4065L25.9162 19.3966L25.9162 19.3868L25.9162 19.3769L25.9162 19.367L25.9162 19.3571L25.9162 19.3472L25.9162 19.3372L25.9162 19.3272L25.9162 19.3172L25.9162 19.3072L25.9162 19.2972L25.9162 19.2871L25.9162 19.2771L25.9162 19.267L25.9162 19.2569L25.9162 19.2467L25.9162 19.2366L25.9162 19.2264L25.9162 19.2162L25.9162 19.206L25.9162 19.1958L25.9162 19.1856L25.9162 19.1753L25.9162 19.165L25.9162 19.1547L25.9162 19.1444L25.9162 19.1341L25.9162 19.1237L25.9162 19.1134L25.9162 19.103L25.9162 19.0926L25.9162 19.0822L25.9162 19.0717L25.9162 19.0613L25.9162 19.0508L25.9162 19.0403L25.9162 19.0298L25.9162 19.0193L25.9162 19.0087L25.9162 18.9982L25.9162 18.9876L25.9162 18.977L25.9162 18.9664L25.9162 18.9557L25.9162 18.9451L25.9162 18.9344L25.9162 18.9237L25.9162 18.913L25.9162 18.9023L25.9162 18.8916L25.9162 18.8808L25.9162 18.87L25.9162 18.8593L25.9162 18.8485L25.9162 18.8376L25.9162 18.8268L25.9162 18.816L25.9162 18.8051L25.9162 18.7942L25.9162 18.7833L25.9162 18.7724L25.9162 18.7614L25.9162 18.7505L25.9162 18.7395L25.9162 18.7285L25.9162 18.7175L25.9162 18.7065L25.9162 18.6955L25.9162 18.6844L25.9162 18.6734L25.9162 18.6623L25.9162 18.6512L25.9162 18.6401L25.9162 18.629L25.9162 18.6178L25.9162 18.6067L25.9162 18.5955L25.9162 18.5843L25.9162 18.5731L25.9162 18.5619L25.9162 18.5507L25.9162 18.5394L25.9162 18.5282L25.9162 18.5169L25.9162 18.5056L25.9162 18.4943L25.9162 18.4829L25.9162 18.4716L25.9162 18.4603L25.9162 18.4489L25.9162 18.4375L25.9162 18.4261L25.9162 18.4147L25.9162 18.4033L25.9162 18.3918L25.9162 18.3804L25.9162 18.3689L25.9162 18.3574L25.9162 18.3459L25.9162 18.3344L25.9162 18.3229L25.9162 18.3113L25.9162 18.2998L25.9162 18.2882L25.9162 18.2766L25.9162 18.265L25.9162 18.2534L25.9162 18.2418L25.9162 18.2302L25.9162 18.2185L25.9162 18.2069L25.9162 18.1952L25.9162 18.1835L25.9162 18.1718L25.9162 18.1601L25.9162 18.1483V18.1366L25.9162 18.1248L25.9162 18.113L25.9162 18.1013L25.9162 18.0895L25.9162 18.0777L25.9162 18.0658L25.9162 18.054L25.9162 18.0421L25.9162 18.0303L25.9162 18.0184L25.9162 18.0065L25.9162 17.9946L25.9162 17.9827L25.9162 17.9708L25.9162 17.9588L25.9162 17.9469L25.9162 17.9349L25.9162 17.923L25.9162 17.911L25.9162 17.899L25.9162 17.887L25.9162 17.8749L25.9162 17.8629L25.9162 17.8509L25.9162 17.8388L25.9162 17.8267L25.9162 17.8147L25.9162 17.8026L25.9162 17.7905L25.9162 17.7783L25.9162 17.7662L25.9162 17.7541L25.9162 17.7419L25.9162 17.7298L25.9162 17.7176L25.9162 17.7054L25.9162 17.6932L25.9162 17.681L25.9162 17.6688L25.9162 17.6565L25.9162 17.6443L25.9162 17.632L25.9162 17.6198L25.9162 17.6075L25.9162 17.5952L25.9162 17.5829L25.9162 17.5706L25.9162 17.5583L25.9162 17.546L25.9162 17.5336L25.9162 17.5213L25.9162 17.5089L25.9162 17.4966L25.9162 17.4842L25.9162 17.4718L25.9162 17.4594L25.9162 17.447L25.9162 17.4346L25.9162 17.4221L25.9162 17.4097L25.9162 17.3973L25.9162 17.3848L25.9162 17.3723L25.9162 17.3599L25.9162 17.3474L25.9162 17.3349L25.9162 17.3224L25.9162 17.3098L25.9162 17.2973L25.9162 17.2848L25.9162 17.2722L25.9162 17.2597L25.9162 17.2471L25.9162 17.2345L25.9162 17.222L25.9162 17.2094L25.9162 17.1968L25.9162 17.1842L25.9162 17.1716L25.9162 17.1589L25.9162 17.1463L25.9162 17.1336L25.9162 17.121L25.9162 17.1083L25.9162 17.0957L25.9162 17.083L25.9162 17.0703L25.9162 17.0576L25.9162 17.0449L25.9162 17.0322L25.9162 17.0195L25.9162 17.0067L25.9162 16.994L25.9162 16.9813L25.9162 16.9685L25.9162 16.9558L25.9162 16.943L25.9162 16.9302L25.9162 16.9174L25.9162 16.9046L25.9162 16.8918L25.9162 16.879L25.9162 16.8662L25.9162 16.8534L25.9162 16.8406L25.9162 16.8277L25.9162 16.8149L25.9162 16.802L25.9162 16.7892L25.9162 16.7763L25.9162 16.7634L25.9162 16.7506L25.9162 16.7377L25.9162 16.7248L25.9162 16.7119L25.9162 16.699L25.9162 16.6861L25.9162 16.6731L25.9162 16.6602L25.9162 16.6473L25.9162 16.6343L25.9162 16.6214L25.9162 16.6084L25.9162 16.5955L25.9162 16.5825L25.9162 16.5695L25.9162 16.5566L25.9162 16.5436L25.9162 16.5306L25.9162 16.5176L25.9162 16.5046L25.9162 16.4916L25.9162 16.4786L25.9162 16.4655L25.9162 16.4525L25.9162 16.4395L25.9162 16.4264L25.9162 16.4134L25.9162 16.4003L25.9162 16.3873L25.9162 16.3742L25.9162 16.3612L25.9162 16.3481L25.9162 16.335L25.9162 16.3219L25.9162 16.3089L25.9162 16.2958L25.9162 16.2827L25.9162 16.2696L25.9162 16.2565L25.9162 16.2433L25.9162 16.2302L25.9162 16.2171L25.9162 16.204L25.9162 16.1908L25.9162 16.1777L25.9162 16.1646L25.9162 16.1514L25.9162 16.1383L25.9162 16.1251L25.9162 16.112L25.9162 16.0988L25.9162 16.0856L25.9162 16.0725L25.9162 16.0593L25.9162 16.0461L25.9162 16.0329L25.9162 16.0197L25.9162 16.0066L25.9162 15.9934L25.9162 15.9802L25.9162 15.967L25.9162 15.9538L25.9162 15.9405L25.9162 15.9273L25.9162 15.9141L25.9162 15.9009L25.9162 15.8877L25.9162 15.8744L25.9162 15.8612L25.9162 15.848L25.9162 15.8347L25.9162 15.8215L25.9162 15.8083L25.9162 15.795L25.9162 15.7818L25.9162 15.7685L25.9162 15.7553L25.9162 15.742L25.9162 15.7287L25.9162 15.7155L25.9162 15.7022L25.9162 15.689L25.9162 15.6757L25.9162 15.6624L25.9162 15.6491L25.9162 15.6359L25.9162 15.6226L25.9162 15.6093L25.9162 15.596L25.9162 15.5827L25.9162 15.5694L25.9162 15.5561L25.9162 15.5429L25.9162 15.5296L25.9162 15.5163L25.9162 15.503L25.9162 15.4897L25.9162 15.4764L25.9162 15.4631L25.9162 15.4498L25.9162 15.4365L25.9162 15.4231L25.9162 15.4098L25.9162 15.3965L25.9162 15.3832L25.9162 15.3699L25.9162 15.3566L25.9162 15.3433L25.9162 15.33L25.9162 15.3166L25.9162 15.3033L25.9162 15.29L25.9162 15.2767L25.9162 15.2634L25.9162 15.25L25.9162 15.2367L25.9162 15.2234L25.9162 15.2101L25.9162 15.1967L25.9162 15.1834L25.9162 15.1701L25.9162 15.1568L25.9162 15.1434L25.9162 15.1301L25.9162 15.1168L25.9162 15.1035L25.9162 15.0901L25.9162 15.0768L25.9162 15.0635L25.9162 15.0501L25.9162 15.0368L25.9162 15.0235L25.9162 15.0102L25.9162 14.9968L25.9162 14.9835L25.9162 14.9702L25.9162 14.9569L25.9162 14.9435L25.9162 14.9302L25.9162 14.9169L25.9162 14.9036L25.9162 14.8903L25.9162 14.8769L25.9162 14.8636L25.9162 14.8503L25.9162 14.837L25.9162 14.8237L25.9162 14.8103L25.9162 14.797L25.9162 14.7837L25.9162 14.7704L25.9162 14.7571L25.9162 14.7438L25.9162 14.7305L25.9162 14.7172L25.9162 14.7039L25.9162 14.6906L25.9162 14.6773L25.9162 14.664L25.9162 14.6507L25.9162 14.6374L25.9162 14.6241L25.9162 14.6108L25.9162 14.5975L25.9162 14.5842L25.9162 14.5709L25.9162 14.5576L25.9162 14.5443L25.9162 14.5311L25.9162 14.5178L25.9162 14.5045L25.9162 14.4912L25.9162 14.478L25.9162 14.4647L25.9162 14.4514L25.9162 14.4382L25.9162 14.4249L25.9162 14.4116L25.9162 14.3984L25.9162 14.3851L25.9162 14.3719L25.9162 14.3586L25.9162 14.3454L25.9162 14.3321L25.9162 14.3189L25.9162 14.3057L25.9162 14.2924L25.9162 14.2792L25.9162 14.266L25.9162 14.2528L25.9162 14.2395L25.9162 14.2263L25.9162 14.2131L25.9162 14.1999L25.9162 14.1867L25.9162 14.1735L25.9162 14.1603L25.9162 14.1471L25.9162 14.1339L25.9162 14.1207L25.9162 14.1076L25.9162 14.0944L25.9162 14.0812L25.9162 14.0681L25.9162 14.0549L25.9162 14.0417L25.9162 14.0286L25.9162 14.0154L25.9162 14.0023L25.9162 13.9891L25.9162 13.976L25.9162 13.9629L25.9162 13.9497C25.9162 13.9218 25.9162 13.8938 25.9161 13.8658C25.9155 13.5114 25.9149 13.1548 26.0123 12.8136C26.0974 12.5156 26.2373 12.2359 26.4246 11.989C26.6391 11.7063 26.9249 11.4928 27.2089 11.2805C27.2313 11.2638 27.2538 11.247 27.2762 11.2302L28.1428 10.5802C28.1557 10.5705 28.1685 10.5609 28.1813 10.5513C28.7664 10.1124 29.2603 9.74197 29.6731 9.48746Z" fill="#0A98FF"/>
<path fill-rule="evenodd" clip-rule="evenodd" d="M9.37323 3.25L9.41699 3.25L18.917 3.25L18.9607 3.25C20.3238 3.25 21.4078 3.24999 22.2824 3.32145C23.178 3.39462 23.9417 3.54768 24.6409 3.90396C25.7699 4.4792 26.6878 5.39709 27.263 6.52606C27.6193 7.22531 27.7724 7.98898 27.8455 8.88458C27.917 9.75917 27.917 10.8432 27.917 12.2062L27.917 12.25L27.917 21.75L27.917 21.7938C27.917 23.1568 27.917 24.2408 27.8455 25.1154C27.7724 26.011 27.6193 26.7747 27.263 27.4739C26.6878 28.6029 25.7699 29.5208 24.6409 30.096C23.9417 30.4523 23.178 30.6054 22.2824 30.6786C21.4078 30.75 20.3238 30.75 18.9608 30.75L18.917 30.75L9.41699 30.75L9.37321 30.75C8.01017 30.75 6.92615 30.75 6.05157 30.6786C5.15597 30.6054 4.3923 30.4523 3.69305 30.096C2.56408 29.5208 1.64619 28.6029 1.07095 27.4739C0.714668 26.7747 0.561607 26.011 0.488433 25.1154C0.416976 24.2408 0.416983 23.1568 0.416991 21.7938L0.416991 21.75L0.416991 12.25L0.416991 12.2062C0.416983 10.8432 0.416976 9.75917 0.488433 8.88458C0.561607 7.98898 0.714668 7.22531 1.07095 6.52606C1.64619 5.39709 2.56408 4.4792 3.69305 3.90396C4.3923 3.54768 5.15597 3.39462 6.05157 3.32145C6.92616 3.24999 8.01019 3.25 9.37323 3.25ZM6.21443 5.3148C5.44251 5.37787 4.97134 5.49729 4.60103 5.68598C3.84838 6.06947 3.23646 6.68139 2.85296 7.43404C2.66428 7.80435 2.54486 8.27553 2.48179 9.04745C2.41777 9.83104 2.41699 10.8334 2.41699 12.25L2.41699 21.75C2.41699 23.1666 2.41777 24.169 2.48179 24.9526C2.54486 25.7245 2.66428 26.1957 2.85296 26.566C3.23646 27.3186 3.84838 27.9305 4.60103 28.314C4.97134 28.5027 5.44251 28.6221 6.21443 28.6852C6.99803 28.7492 8.00036 28.75 9.41699 28.75L18.917 28.75C20.3336 28.75 21.336 28.7492 22.1195 28.6852C22.8915 28.6221 23.3626 28.5027 23.733 28.314C24.4856 27.9305 25.0975 27.3186 25.481 26.566C25.6697 26.1957 25.7891 25.7245 25.8522 24.9526C25.9162 24.169 25.917 23.1666 25.917 21.75L25.917 12.25C25.917 10.8334 25.9162 9.83104 25.8522 9.04745C25.7891 8.27553 25.6697 7.80435 25.481 7.43404C25.0975 6.68139 24.4856 6.06947 23.733 5.68598C23.3626 5.49729 22.8915 5.37787 22.1195 5.3148C21.336 5.25078 20.3336 5.25 18.917 5.25L9.41699 5.25C8.00036 5.25 6.99803 5.25078 6.21443 5.3148Z" fill="#0A98FF"/>
</svg>
