<svg width="34" height="34" viewBox="0 0 34 34" fill="none" xmlns="http://www.w3.org/2000/svg">
<path d="M25.557 19.1959C24.962 19.7767 24.622 20.6126 24.707 21.5051C24.8345 23.0351 26.237 24.1542 27.767 24.1542H30.4587V25.8401C30.4587 28.7726 28.0645 31.1667 25.132 31.1667H10.8095C11.2487 30.7984 11.6312 30.3451 11.9287 29.8351C12.4528 28.9851 12.7503 27.9792 12.7503 26.9167C12.7503 23.7859 10.2145 21.2501 7.08366 21.2501C5.75199 21.2501 4.51949 21.7176 3.54199 22.4968V16.3059C3.54199 13.3734 5.93615 10.9792 8.86865 10.9792H25.132C28.0645 10.9792 30.4587 13.3734 30.4587 16.3059V18.3459H27.597C26.8037 18.3459 26.0812 18.6576 25.557 19.1959Z" stroke="RGB(47,46,46)" stroke-width="1.25" stroke-linecap="round" stroke-linejoin="round"/>
<path d="M3.54199 17.5808V11.1068C3.54199 9.42092 4.57615 7.91919 6.14865 7.32419L17.397 3.07419C19.1537 2.40836 21.0378 3.71173 21.0378 5.5959V10.9792" stroke="RGB(47,46,46)" stroke-width="1.25" stroke-linecap="round" stroke-linejoin="round"/>
<path d="M31.9586 19.7911V22.7095C31.9586 23.4887 31.3353 24.1262 30.542 24.1545H27.7653C26.2353 24.1545 24.8328 23.0353 24.7053 21.5053C24.6203 20.6128 24.9603 19.777 25.5553 19.1962C26.0795 18.6578 26.802 18.3462 27.5953 18.3462H30.542C31.3353 18.3745 31.9586 19.012 31.9586 19.7911Z" stroke="RGB(47,46,46)" stroke-width="1.25" stroke-linecap="round" stroke-linejoin="round"/>
<path d="M9.91699 17H19.8337" stroke="RGB(47,46,46)" stroke-width="1.25" stroke-linecap="round" stroke-linejoin="round"/>
<path d="M12.7503 26.9167C12.7503 27.9792 12.4528 28.985 11.9287 29.835C11.6312 30.345 11.2487 30.7983 10.8095 31.1667C9.81783 32.0592 8.51449 32.5833 7.08366 32.5833C5.01533 32.5833 3.21616 31.4783 2.23866 29.835C1.71449 28.985 1.41699 27.9792 1.41699 26.9167C1.41699 25.1317 2.23866 23.5308 3.54199 22.4967C4.51949 21.7175 5.75199 21.25 7.08366 21.25C10.2145 21.25 12.7503 23.7858 12.7503 26.9167Z" stroke="RGB(47,46,46)" stroke-width="1.25" stroke-miterlimit="10" stroke-linecap="round" stroke-linejoin="round"/>
<path d="M4.87598 26.9159L6.27846 28.3184L9.29597 25.5276" stroke="RGB(47,46,46)" stroke-width="1.25" stroke-linecap="round" stroke-linejoin="round"/>
</svg>
